<svg width="836" height="364" viewBox="0 0 836 364" fill="none" xmlns="http://www.w3.org/2000/svg">
<path d="M214.906 0V248H250.906V295H214.906V358H165.906V295H0.90625L214.906 0ZM89.9063 249H165.906V141.5L89.9063 249Z" fill="url(#paint0_linear_97867_68295)"/>
<path d="M493.816 327.5C472.816 351.5 447.65 363.5 418.316 363.5C388.983 363.5 363.816 351.5 342.816 327.5C314.483 295.167 300.316 249.833 300.316 191.5C300.316 132.833 314.483 87.3333 342.816 55C363.816 31 388.983 19 418.316 19C447.65 19 472.816 31 493.816 55C522.15 87.3333 536.316 132.833 536.316 191.5C536.316 249.833 522.15 295.167 493.816 327.5ZM463.316 91.5C451.316 73.1667 436.316 64 418.316 64C400.316 64 385.316 73.1667 373.316 91.5C357.983 114.167 350.316 147.333 350.316 191C350.316 234.333 357.983 267.667 373.316 291C385.316 309.333 400.316 318.5 418.316 318.5C436.316 318.5 451.316 309.333 463.316 291C478.65 267.667 486.316 234.333 486.316 191C486.316 147.333 478.65 114.167 463.316 91.5Z" fill="url(#paint1_linear_97867_68295)"/>
<path d="M621.086 0V248H585.086V295H621.086V358H670.086V295H835.086L621.086 0ZM746.086 249H670.086V141.5L746.086 249Z" fill="url(#paint2_linear_97867_68295)"/>
<defs>
<linearGradient id="paint0_linear_97867_68295" x1="703.406" y1="24" x2="703.406" y2="358" gradientUnits="userSpaceOnUse">
<stop stop-color="#600A0A"/>
<stop offset="1" stop-color="#020202"/>
</linearGradient>
<linearGradient id="paint1_linear_97867_68295" x1="703.406" y1="24" x2="703.406" y2="358" gradientUnits="userSpaceOnUse">
<stop stop-color="#600A0A"/>
<stop offset="1" stop-color="#020202"/>
</linearGradient>
<linearGradient id="paint2_linear_97867_68295" x1="703.406" y1="24" x2="703.406" y2="358" gradientUnits="userSpaceOnUse">
<stop stop-color="#600A0A"/>
<stop offset="1" stop-color="#020202"/>
</linearGradient>
</defs>
</svg>
