<svg width="17" height="17" viewBox="0 0 17 17" fill="none" xmlns="http://www.w3.org/2000/svg">
<path d="M6.10345 10.3089C6.32184 11.3822 6.73563 12.2131 7.34483 12.8016C7.95402 13.3902 8.70115 13.6844 9.58621 13.6844C10.4598 13.6844 11.1897 13.4421 11.7759 12.9574C12.3736 12.4612 12.7356 11.7572 12.8621 10.8455H14.5C14.3506 12.115 13.8218 13.1247 12.9138 13.8748C12.0172 14.6249 10.9253 15 9.63793 15C8.22414 15 7.06322 14.5903 6.15517 13.771C5.25862 12.9401 4.67241 11.7861 4.39655 10.3089H2.5L3.24138 9.20107H4.25862C4.24713 9.03951 4.24138 8.78563 4.24138 8.43942C4.24138 8.12784 4.24713 7.89126 4.25862 7.72969H2.5L3.24138 6.63915H4.39655C4.67241 5.18509 5.27586 4.04839 6.2069 3.22904C7.13793 2.40968 8.29885 2 9.68966 2C10.954 2 12.0287 2.38083 12.9138 3.14248C13.7989 3.89259 14.3161 4.89659 14.4655 6.15447H12.8276C12.7126 5.24279 12.3621 4.54461 11.7759 4.05992C11.1897 3.56369 10.4598 3.31558 9.58621 3.31558C8.71264 3.31558 7.96552 3.60408 7.34483 4.18109C6.73563 4.74656 6.32184 5.56592 6.10345 6.63915H10.9483L10.2069 7.72969H5.94828C5.93678 7.89126 5.93103 8.12784 5.93103 8.43942C5.93103 8.78563 5.93678 9.03951 5.94828 9.20107H9.55172L8.81035 10.3089H6.10345Z" fill="white"/>
</svg>
