<svg width="12" height="14" viewBox="0 0 12 14" fill="none" xmlns="http://www.w3.org/2000/svg">
<path d="M3.60345 8.80892C3.82184 9.88216 4.23563 10.7131 4.84483 11.3016C5.45402 11.8902 6.20115 12.1844 7.08621 12.1844C7.95977 12.1844 8.68966 11.9421 9.27586 11.4574C9.87356 10.9612 10.2356 10.2572 10.3621 9.34554H12C11.8506 10.615 11.3218 11.6247 10.4138 12.3748C9.51724 13.1249 8.42529 13.5 7.13793 13.5C5.72414 13.5 4.56322 13.0903 3.65517 12.271C2.75862 11.4401 2.17241 10.2861 1.89655 8.80892H0L0.741379 7.70107H1.75862C1.74713 7.53951 1.74138 7.28562 1.74138 6.93942C1.74138 6.62784 1.74713 6.39126 1.75862 6.22969H0L0.741379 5.13915H1.89655C2.17241 3.68509 2.77586 2.54839 3.7069 1.72904C4.63793 0.909683 5.79885 0.5 7.18966 0.5C8.45402 0.5 9.52874 0.880825 10.4138 1.64248C11.2989 2.39259 11.8161 3.39659 11.9655 4.65447H10.3276C10.2126 3.74279 9.86207 3.04461 9.27586 2.55992C8.68966 2.06369 7.95977 1.81558 7.08621 1.81558C6.21264 1.81558 5.46552 2.10408 4.84483 2.68109C4.23563 3.24656 3.82184 4.06592 3.60345 5.13915H8.44828L7.7069 6.22969H3.44828C3.43678 6.39126 3.43103 6.62784 3.43103 6.93942C3.43103 7.28562 3.43678 7.53951 3.44828 7.70107H7.05172L6.31035 8.80892H3.60345Z" fill="white"/>
</svg>
