<svg width="21" height="22" viewBox="0 0 21 22" fill="none" xmlns="http://www.w3.org/2000/svg">
<path d="M12.9538 1C8.55433 1 4.85432 4.16039 3.77624 8.4359C2.92644 8.43589 2.06759 8.4359 1.22143 8.4359C1.09403 8.44848 0.988984 8.58209 1.00093 8.71635C1.01287 8.8506 1.13965 8.9613 1.26705 8.94872H3.65459C3.5229 9.61198 3.45689 10.2957 3.45689 11C3.45689 11.7015 3.52389 12.3904 3.65459 13.0513C2.84537 13.0513 2.02699 13.0513 1.22143 13.0513C1.09403 13.0639 0.988984 13.1975 1.00093 13.3317C1.01287 13.466 1.13965 13.5767 1.26705 13.5641H3.76864C4.84396 17.8439 8.55142 21 12.9538 21C16.0474 21 18.0656 19.5554 19.9339 17.5865C20.0226 17.4898 20.0203 17.3171 19.9291 17.223C19.8379 17.129 19.6739 17.1304 19.5841 17.226C17.754 19.1545 15.9064 20.4872 12.9538 20.4872C8.8168 20.4872 5.3388 17.56 4.27808 13.5641H13.4328C13.5614 13.566 13.6796 13.4432 13.6796 13.3077C13.6796 13.1722 13.5614 13.0494 13.4328 13.0513H4.15642C4.01846 12.3909 3.94352 11.7042 3.94352 11C3.94352 10.2939 4.01774 9.61071 4.15642 8.94872H13.4328C13.5614 8.95064 13.6796 8.82779 13.6796 8.69231C13.6796 8.55683 13.5614 8.43398 13.4328 8.4359H4.27808C5.33979 4.4416 8.81789 1.51282 12.9538 1.51282C15.9064 1.51282 17.754 2.83744 19.5841 4.76603C19.6737 4.86257 19.8386 4.8645 19.9302 4.77008C20.0217 4.67567 20.0235 4.50194 19.9339 4.40545C18.0656 2.4366 16.0474 1 12.9538 1Z" fill="white" stroke="white"/>
</svg>