<svg width="1204" height="629" viewBox="0 0 1204 629" fill="none" xmlns="http://www.w3.org/2000/svg">
    <path d="M699.152 307.389C670.822 307.389 647.767 330.625 647.767 359.174C647.767 387.724 670.822 410.959 699.152 410.959C727.482 410.959 750.537 387.724 750.537 359.174C750.537 330.625 727.482 307.389 699.152 307.389ZM699.152 406.525C675.177 406.525 658.441 387.059 658.441 359.174C658.441 331.289 675.187 311.824 699.152 311.824C723.116 311.824 739.863 331.289 739.863 359.174C739.863 387.059 723.116 406.525 699.152 406.525ZM1001.32 307.389C972.986 307.389 949.932 330.625 949.932 359.174C949.932 387.724 972.986 410.959 1001.32 410.959C1029.65 410.959 1052.7 387.724 1052.7 359.174C1052.7 330.625 1029.65 307.389 1001.32 307.389ZM1001.32 406.525C977.342 406.525 960.605 387.059 960.605 359.174C960.605 331.289 977.352 311.824 1001.32 311.824C1025.28 311.824 1042.03 331.289 1042.03 359.174C1042.03 387.059 1025.28 406.525 1001.32 406.525ZM1107.5 309.76V308.381H1136.3C1136.32 309.218 1136.33 309.76 1136.3 309.76C1136.02 309.75 1135.92 309.74 1135.13 309.74C1129.78 309.74 1128.7 312.263 1128.39 313.99C1128.3 314.338 1128.28 314.992 1128.28 315.421C1128.28 316.667 1128.67 318.251 1129.4 320.295L1157.76 397.655L1159.12 401.324L1187.51 323.779C1188.3 321.603 1188.76 319.631 1188.76 317.914C1188.76 313.704 1186.19 311.129 1180.86 311.129V309.811H1202V311.129C1194.16 311.129 1192.45 315.411 1189.74 322.655L1157.36 410.949H1151.97L1119.12 321.245C1116.3 313.49 1115.26 309.566 1107.5 309.75V309.76ZM416.412 409.58C409.94 409.58 409.255 407.383 406.158 399.209L372.889 308.278C372.685 307.706 372.133 307.328 371.53 307.328H369.945C369.342 307.328 368.79 307.706 368.585 308.278L368.401 308.779H368.391L335.644 398.125C332.945 405.564 330.9 409.58 323.386 409.58V410.959H344.529V409.58C339.192 409.58 336.687 407.015 336.687 402.867C336.687 401.15 337.086 399.178 337.873 397.002L346.696 372.775H385.833L396.108 400.884C396.762 402.724 397.171 404.185 397.099 405.36C396.926 407.986 394.85 409.57 389.748 409.57H388.317V410.99C388.317 410.99 388.317 410.97 388.317 410.949H417.884C417.884 410.949 417.884 410.97 417.884 410.99V410.949H417.915V409.57H416.392L416.412 409.58ZM347.381 371.058L366.285 319.375L385.189 371.058H347.371H347.381ZM251.062 398.647L234.07 377.179C227.548 368.687 219.021 363.415 212.897 361.381H220.698C238.283 361.381 252.187 352.819 252.187 335.571C252.187 318.323 239.673 308.391 220.698 308.391H198.277H178.913V309.77C187.02 309.77 188.329 312.723 188.329 319.58V401.16C188.329 407.669 187.225 409.59 180.354 409.59H178.903V410.97H207.703V409.59H206.241C199.473 409.59 198.267 407.628 198.267 401.16V361.392H200.107C208.276 361.392 213.551 365.346 222.241 376.473L249.713 410.98H266.337V409.6C260.08 409.6 257.309 406.77 251.052 398.667L251.062 398.647ZM198.267 359.665V310.026H217.763C230.083 310.026 242.209 316.208 242.209 335.561C242.209 356.303 229.296 359.655 217.763 359.655H198.267V359.665ZM880.492 398.647L863.5 377.179C856.977 368.687 848.45 363.415 842.326 361.381H850.127C867.712 361.381 881.616 352.819 881.616 335.571C881.616 318.323 869.102 308.391 850.127 308.391H827.706H808.342V309.77C816.45 309.77 817.758 312.723 817.758 319.58V401.16C817.758 407.669 816.654 409.59 809.784 409.59H808.332V410.97H837.133V409.59H835.67C828.902 409.59 827.696 407.628 827.696 401.16V361.392H829.536C837.705 361.392 842.981 365.346 851.671 376.473L879.142 410.98H895.766V409.6C889.509 409.6 886.738 406.77 880.481 398.667L880.492 398.647ZM827.696 359.665V310.026H847.193C859.512 310.026 871.638 316.208 871.638 335.561C871.638 356.303 858.725 359.655 847.193 359.655H827.696V359.665ZM121.107 409.58H122.58V410.959H93.7792V409.58H95.2207C102.193 409.58 103.195 407.7 103.195 401.15V321.909C103.195 321.909 64.6209 410.929 64.6106 410.959H52.0558L13.4302 321.93V401.15C13.4302 407.7 14.4321 409.58 21.4048 409.58H22.8566V410.959H2V409.58H3.47217C9.05437 409.58 11.4366 404.563 11.4366 396.215V319.58C11.4366 318.629 11.3854 317.751 11.2627 316.933C11.048 315.216 10.5573 313.786 9.74961 312.672C9.55536 312.366 9.32028 312.079 9.05446 311.844C7.68447 310.485 5.66006 309.78 2.82806 309.78C2.44978 309.78 2 309.76 2 309.76L2.02047 308.381H20.0553L20.4336 312.642V312.672L62.5249 409.662H63.5678L66.9622 402.008L104.647 315.032L105.169 313.878L105.567 312.672L105.945 308.381H122.559L122.58 309.76C122.58 309.76 122.13 309.78 121.752 309.78C115.423 309.78 113.143 313.285 113.143 319.58V396.215C113.143 404.563 115.525 409.58 121.107 409.58ZM590.718 409.58H592.19V410.959H563.39V409.58H564.831C571.804 409.58 572.806 407.7 572.806 401.15V321.909C572.806 321.909 534.231 410.929 534.221 410.959H521.666L483.041 321.93V401.15C483.041 407.7 484.043 409.58 491.015 409.58H492.467V410.959H471.611V409.58H473.083C478.665 409.58 481.047 404.563 481.047 396.215V319.58C481.047 318.629 480.996 317.751 480.873 316.933C480.659 315.216 480.168 313.786 479.36 312.672C479.166 312.366 478.931 312.079 478.665 311.844C477.295 310.485 475.271 309.78 472.439 309.78C472.06 309.78 471.611 309.76 471.611 309.76L471.631 308.381H489.666L490.044 312.642V312.672L532.136 409.662H533.178L536.573 402.008L574.258 315.032L574.779 313.878L575.178 312.672L575.556 308.381H592.17L592.19 309.76C592.19 309.76 591.74 309.78 591.362 309.78C585.034 309.78 582.754 313.285 582.754 319.58V396.215C582.754 404.563 585.136 409.58 590.718 409.58Z" fill="white"/>
    <path d="M417.884 410.949H388.317C388.317 410.97 388.317 410.99 388.317 410.99V409.57H389.748C394.85 409.57 396.926 407.986 397.099 405.36C397.171 404.185 396.762 402.724 396.108 400.884L385.833 372.775H346.696L337.873 397.002C337.086 399.178 336.687 401.15 336.687 402.867C336.687 407.015 339.192 409.58 344.529 409.58V410.959H323.386V409.58C330.9 409.58 332.945 405.564 335.644 398.125L368.391 308.779H368.401L368.585 308.278C368.79 307.706 369.342 307.328 369.945 307.328H371.53C372.133 307.328 372.685 307.706 372.889 308.278L406.158 399.209C409.255 407.383 409.94 409.58 416.412 409.58L416.392 409.57H417.915V410.949H417.884ZM417.884 410.949C417.884 410.949 417.884 410.97 417.884 410.99V410.949ZM699.152 307.389C670.822 307.389 647.767 330.625 647.767 359.174C647.767 387.724 670.822 410.959 699.152 410.959C727.482 410.959 750.537 387.724 750.537 359.174C750.537 330.625 727.482 307.389 699.152 307.389ZM699.152 406.525C675.177 406.525 658.441 387.059 658.441 359.174C658.441 331.289 675.187 311.824 699.152 311.824C723.116 311.824 739.863 331.289 739.863 359.174C739.863 387.059 723.116 406.525 699.152 406.525ZM1001.32 307.389C972.986 307.389 949.932 330.625 949.932 359.174C949.932 387.724 972.986 410.959 1001.32 410.959C1029.65 410.959 1052.7 387.724 1052.7 359.174C1052.7 330.625 1029.65 307.389 1001.32 307.389ZM1001.32 406.525C977.342 406.525 960.605 387.059 960.605 359.174C960.605 331.289 977.352 311.824 1001.32 311.824C1025.28 311.824 1042.03 331.289 1042.03 359.174C1042.03 387.059 1025.28 406.525 1001.32 406.525ZM1107.5 309.76V308.381H1136.3C1136.32 309.218 1136.33 309.76 1136.3 309.76C1136.02 309.75 1135.92 309.74 1135.13 309.74C1129.78 309.74 1128.7 312.263 1128.39 313.99C1128.3 314.338 1128.28 314.992 1128.28 315.421C1128.28 316.667 1128.67 318.251 1129.4 320.295L1157.76 397.655L1159.12 401.324L1187.51 323.779C1188.3 321.603 1188.76 319.631 1188.76 317.914C1188.76 313.704 1186.19 311.129 1180.86 311.129V309.811H1202V311.129C1194.16 311.129 1192.45 315.411 1189.74 322.655L1157.36 410.949H1151.97L1119.12 321.245C1116.3 313.49 1115.26 309.566 1107.5 309.75V309.76ZM347.381 371.058L366.285 319.375L385.189 371.058H347.371H347.381ZM251.062 398.647L234.07 377.179C227.548 368.687 219.021 363.415 212.897 361.381H220.698C238.283 361.381 252.187 352.819 252.187 335.571C252.187 318.323 239.673 308.391 220.698 308.391H198.277H178.913V309.77C187.02 309.77 188.329 312.723 188.329 319.58V401.16C188.329 407.669 187.225 409.59 180.354 409.59H178.903V410.97H207.703V409.59H206.241C199.473 409.59 198.267 407.628 198.267 401.16V361.392H200.107C208.276 361.392 213.551 365.346 222.241 376.473L249.713 410.98H266.337V409.6C260.08 409.6 257.309 406.77 251.052 398.667L251.062 398.647ZM198.267 359.665V310.026H217.763C230.083 310.026 242.209 316.208 242.209 335.561C242.209 356.303 229.296 359.655 217.763 359.655H198.267V359.665ZM880.492 398.647L863.5 377.179C856.977 368.687 848.45 363.415 842.326 361.381H850.127C867.712 361.381 881.616 352.819 881.616 335.571C881.616 318.323 869.102 308.391 850.127 308.391H827.706H808.342V309.77C816.45 309.77 817.758 312.723 817.758 319.58V401.16C817.758 407.669 816.654 409.59 809.784 409.59H808.332V410.97H837.133V409.59H835.67C828.902 409.59 827.696 407.628 827.696 401.16V361.392H829.536C837.705 361.392 842.981 365.346 851.671 376.473L879.142 410.98H895.766V409.6C889.509 409.6 886.738 406.77 880.481 398.667L880.492 398.647ZM827.696 359.665V310.026H847.193C859.512 310.026 871.638 316.208 871.638 335.561C871.638 356.303 858.725 359.655 847.193 359.655H827.696V359.665ZM121.107 409.58H122.58V410.959H93.7792V409.58H95.2207C102.193 409.58 103.195 407.7 103.195 401.15V321.909C103.195 321.909 64.6209 410.929 64.6106 410.959H52.0558L13.4302 321.93V401.15C13.4302 407.7 14.4321 409.58 21.4048 409.58H22.8566V410.959H2V409.58H3.47217C9.05437 409.58 11.4366 404.563 11.4366 396.215V319.58C11.4366 318.629 11.3854 317.751 11.2627 316.933C11.048 315.216 10.5573 313.786 9.74961 312.672C9.55536 312.366 9.32028 312.079 9.05446 311.844C7.68447 310.485 5.66006 309.78 2.82806 309.78C2.44978 309.78 2 309.76 2 309.76L2.02047 308.381H20.0553L20.4336 312.642V312.672L62.5249 409.662H63.5678L66.9622 402.008L104.647 315.032L105.169 313.878L105.567 312.672L105.945 308.381H122.559L122.58 309.76C122.58 309.76 122.13 309.78 121.752 309.78C115.423 309.78 113.143 313.285 113.143 319.58V396.215C113.143 404.563 115.525 409.58 121.107 409.58ZM590.718 409.58H592.19V410.959H563.39V409.58H564.831C571.804 409.58 572.806 407.7 572.806 401.15V321.909C572.806 321.909 534.231 410.929 534.221 410.959H521.666L483.041 321.93V401.15C483.041 407.7 484.043 409.58 491.015 409.58H492.467V410.959H471.611V409.58H473.083C478.665 409.58 481.047 404.563 481.047 396.215V319.58C481.047 318.629 480.996 317.751 480.873 316.933C480.659 315.216 480.168 313.786 479.36 312.672C479.166 312.366 478.931 312.079 478.665 311.844C477.295 310.485 475.271 309.78 472.439 309.78C472.06 309.78 471.611 309.76 471.611 309.76L471.631 308.381H489.666L490.044 312.642V312.672L532.136 409.662H533.178L536.573 402.008L574.258 315.032L574.779 313.878L575.178 312.672L575.556 308.381H592.17L592.19 309.76C592.19 309.76 591.74 309.78 591.362 309.78C585.034 309.78 582.754 313.285 582.754 319.58V396.215C582.754 404.563 585.136 409.58 590.718 409.58Z" stroke="white" stroke-width="2.13" stroke-miterlimit="10"/>
</svg>