<svg width="18" height="22" viewBox="0 0 18 22" fill="none" xmlns="http://www.w3.org/2000/svg">
<path d="M1.23331 1C1.09907 1.01258 0.988393 1.14617 1.00098 1.2804C1.01356 1.41463 1.14714 1.52531 1.28137 1.51273H4.59808V11.2545H1.28137C1.14593 11.2526 1.02136 11.3754 1.02136 11.5109C1.02136 11.6464 1.14593 11.7692 1.28137 11.7673H4.59808V15.3564C3.47822 15.3564 2.34939 15.3564 1.23331 15.3564C1.09907 15.3689 0.988393 15.5025 1.00098 15.6368C1.01356 15.771 1.14714 15.8817 1.28137 15.8691H4.59808V20.74C4.59615 20.8754 4.71899 21 4.85444 21C4.98989 21 5.11272 20.8754 5.1108 20.74V15.8691H13.0741C13.2095 15.871 13.3341 15.7482 13.3341 15.6127C13.3341 15.4773 13.2095 15.3544 13.0741 15.3564H5.1108V11.7673H12.0486C15.0267 11.7673 17.4323 9.36173 17.4323 6.38363C17.4323 3.40554 15.0267 1 12.0486 1C8.44468 1 4.83372 1 1.23331 1ZM5.1108 1.51273H12.0486C14.7516 1.51273 16.9195 3.68072 16.9195 6.38363C16.9195 9.08655 14.7516 11.2545 12.0486 11.2545H5.1108V1.51273Z" fill="white" stroke="white"/>
</svg>