<svg width="17" height="17" viewBox="0 0 17 17" fill="none" xmlns="http://www.w3.org/2000/svg">
<path d="M6.46895 11.2703H10.6209V12.6152H6.46895V15H4.63562V12.6152H3V11.2703H4.63562V9.88966H3V8.31172H4.63562V2H8.5C9.35076 2 10.0937 2.05976 10.7288 2.1793C11.3638 2.29884 11.933 2.50207 12.4363 2.78897C12.9515 3.07586 13.341 3.48229 13.6046 4.00827C13.8682 4.53425 14 5.17977 14 5.94483C14 7.37931 13.5207 8.3954 12.5621 8.99311C11.6035 9.59081 10.2495 9.88966 8.5 9.88966H6.46895V11.2703ZM8.58987 8.31172C9.71623 8.31172 10.585 8.14437 11.1961 7.80966C11.8192 7.47495 12.1307 6.85333 12.1307 5.94483C12.1307 5.03632 11.8192 4.41471 11.1961 4.08C10.585 3.74529 9.71623 3.57793 8.58987 3.57793H6.46895V8.31172H8.58987Z" fill="white"/>
</svg>
