<svg width="11" height="14" viewBox="0 0 11 14" fill="none" xmlns="http://www.w3.org/2000/svg">
<path d="M3.46895 9.77034H7.62092V11.1152H3.46895V13.5H1.63562V11.1152H0V9.77034H1.63562V8.38966H0V6.81172H1.63562V0.5H5.5C6.35076 0.5 7.09368 0.559763 7.72876 0.679303C8.36383 0.798843 8.93301 1.00207 9.43627 1.28897C9.95153 1.57586 10.341 1.98229 10.6046 2.50827C10.8682 3.03425 11 3.67977 11 4.44483C11 5.87931 10.5207 6.8954 9.56209 7.49311C8.60349 8.09081 7.24946 8.38966 5.5 8.38966H3.46895V9.77034ZM5.58987 6.81172C6.71623 6.81172 7.58497 6.64437 8.19608 6.30966C8.81917 5.97495 9.13072 5.35333 9.13072 4.44483C9.13072 3.53632 8.81917 2.91471 8.19608 2.58C7.58497 2.24529 6.71623 2.07793 5.58987 2.07793H3.46895V6.81172H5.58987Z" fill="white"/>
</svg>
