<svg width="18" height="16" viewBox="0 0 18 16" fill="none" xmlns="http://www.w3.org/2000/svg">
<path d="M9.96025 0.0578842C9.76026 -0.0385399 9.52813 -0.013541 9.35671 0.125738L3.79982 4.57196H1.1428C0.514262 4.57196 0 5.08622 0 5.71476V10.286C0 10.9181 0.514262 11.4288 1.1428 11.4288H3.79982L9.35671 15.875C9.46027 15.9571 9.58884 16 9.71383 16C9.79954 16 9.88168 15.9821 9.96025 15.9429C10.1567 15.8464 10.2852 15.6464 10.2852 15.4286V0.572146C10.2852 0.354299 10.1602 0.154308 9.96025 0.0578842Z" fill="white"/>
<path d="M12.75 5C12.5511 5 12.3603 5.07902 12.2197 5.21967C12.079 5.36032 12 5.55109 12 5.75V10.25C12 10.4489 12.079 10.6397 12.2197 10.7803C12.3603 10.921 12.5511 11 12.75 11C12.9489 11 13.1397 10.921 13.2803 10.7803C13.421 10.6397 13.5 10.4489 13.5 10.25V5.75C13.5 5.55109 13.421 5.36032 13.2803 5.21967C13.1397 5.07902 12.9489 5 12.75 5Z" fill="white"/>
<path d="M15 3.5C14.8011 3.5 14.6103 3.57902 14.4697 3.71967C14.329 3.86032 14.25 4.05109 14.25 4.25V11.75C14.25 11.9489 14.329 12.1397 14.4697 12.2803C14.6103 12.421 14.8011 12.5 15 12.5C15.1989 12.5 15.3897 12.421 15.5303 12.2803C15.671 12.1397 15.75 11.9489 15.75 11.75V4.25C15.75 4.05109 15.671 3.86032 15.5303 3.71967C15.3897 3.57902 15.1989 3.5 15 3.5Z" fill="white"/>
<path d="M17.25 2C17.0511 2 16.8603 2.07902 16.7197 2.21967C16.579 2.36032 16.5 2.55109 16.5 2.75V13.25C16.5 13.4489 16.579 13.6397 16.7197 13.7803C16.8603 13.921 17.0511 14 17.25 14C17.4489 14 17.6397 13.921 17.7803 13.7803C17.921 13.6397 18 13.4489 18 13.25V2.75C18 2.55109 17.921 2.36032 17.7803 2.21967C17.6397 2.07902 17.4489 2 17.25 2Z" fill="white"/>
</svg>
