<svg width="19" height="16" viewBox="0 0 19 16" fill="none" xmlns="http://www.w3.org/2000/svg">
<path d="M15.9243 8.00037L18.1277 5.7969C18.3384 5.5862 18.3384 5.24693 18.1277 5.0398C17.917 4.82909 17.5778 4.82909 17.3706 5.0398L15.1672 7.24326L12.9637 5.0398C12.753 4.82909 12.4137 4.82909 12.2066 5.0398C11.9959 5.2505 11.9959 5.58977 12.2066 5.7969L14.41 8.00037L12.2066 10.2038C11.9959 10.4145 11.9959 10.7538 12.2066 10.9609C12.3101 11.0645 12.4494 11.1181 12.5851 11.1181C12.7208 11.1181 12.8601 11.0645 12.9637 10.9609L15.1672 8.75748L17.3706 10.9609C17.4742 11.0645 17.6135 11.1181 17.7492 11.1181C17.8849 11.1181 18.0242 11.0645 18.1277 10.9609C18.3384 10.7502 18.3384 10.411 18.1277 10.2038L15.9243 8.00037ZM9.96025 0.0578842C9.76026 -0.0385399 9.52813 -0.013541 9.35671 0.125738L3.79982 4.57196H1.1428C0.514262 4.57196 0 5.08622 0 5.71476V10.286C0 10.9181 0.514262 11.4288 1.1428 11.4288H3.79982L9.35671 15.875C9.46027 15.9571 9.58884 16 9.71383 16C9.79954 16 9.88168 15.9821 9.96025 15.9429C10.1567 15.8464 10.2852 15.6464 10.2852 15.4286V0.572146C10.2852 0.354299 10.1602 0.154308 9.96025 0.0578842Z" fill="white"/>
</svg>
