<svg width="18" height="28" viewBox="0 0 18 28" fill="none" xmlns="http://www.w3.org/2000/svg">
<path d="M9.08945 1C9.5625 1 9.58986 1.20395 9.59127 1.66446L9.58986 3.24995C9.58986 3.5183 9.57001 3.79134 9.58986 4.05968C13.5647 4.04327 17.1143 5.76 17.1869 9.31305C17.1954 9.66461 16.8878 9.89662 16.5334 9.68102C16.3108 9.54626 16.3788 9.2404 16.3604 9.04471C16.0783 5.99205 13.005 4.709 9.59009 4.7231V13.6771C11.6583 13.7697 13.3636 14.0228 15.0024 15.2298C19.3914 18.464 16.5972 23.5955 11.2134 24.0326C10.6676 24.076 10.1331 24.0572 9.5902 24.0795V26.8483C9.50514 26.914 9.39598 26.9573 9.2925 27.0007C9.09688 27.0054 8.9778 26.9772 8.84029 26.8483C8.74814 26.5507 8.78926 26.6225 8.78926 26.3096L8.79067 24.8613C8.79067 24.6011 8.8006 24.3398 8.79067 24.0796C7.24692 24.082 5.79106 23.9964 4.39192 23.3695C2.9545 22.7238 1.8516 21.6024 1.39372 20.3039C1.25621 19.9149 0.978376 18.9388 1.22077 18.5743C1.31292 18.4771 1.38805 18.456 1.52556 18.4255C2.08552 18.5474 1.92533 19.0149 1.98626 19.3981C2.46257 22.3605 5.43101 23.5149 8.7907 23.4327C8.81622 23.1163 8.7907 22.7882 8.7907 22.4706V14.3523C6.65865 14.3559 4.61586 13.9586 3.05102 12.6637C0.672296 10.6939 0.585816 7.68936 2.99148 5.70884C4.51963 4.45031 6.70145 4.05541 8.79068 4.06009C8.79068 3.64526 8.74248 1.29569 8.83604 1.14209C8.88566 1.06124 8.99305 1.0293 9.08945 1ZM9.62103 14.3518C9.5218 14.4222 9.58984 15.0233 9.58984 15.1581V21.234C9.58984 21.9652 9.61536 22.7023 9.58984 23.4323C11.4639 23.4968 13.2657 23.1663 14.6832 22.0824L14.7045 22.066C16.8748 20.3001 16.9953 17.7993 14.8264 15.9937C13.5789 14.9543 11.4016 14.2124 9.62103 14.3518ZM8.64856 4.72286C6.73199 4.72403 4.88198 5.09784 3.48698 6.25327C1.42155 7.96647 1.59023 10.7612 3.79743 12.3433C4.95985 13.2046 7.19682 13.8772 8.79026 13.6768V5.65459C8.79026 5.42608 8.9335 4.70882 8.64856 4.72286Z" fill="white" stroke="white"/>
</svg>