<svg width="10" height="18" viewBox="0 0 10 18" fill="none" xmlns="http://www.w3.org/2000/svg">
<path d="M5.45991 0.5V1.86674C6.77532 1.96659 7.80977 2.39721 8.56326 3.15859C9.31675 3.90749 9.68711 4.89354 9.67434 6.11674H7.87363C7.86086 5.21806 7.62459 4.54405 7.16484 4.09471C6.71785 3.64537 6.14954 3.37702 5.45991 3.28964V7.93282L5.74725 8.00771C6.37303 8.16997 6.89664 8.33847 7.31809 8.51321C7.7523 8.68796 8.1929 8.92511 8.63989 9.22467C9.08687 9.51175 9.42531 9.8862 9.65518 10.348C9.88506 10.8098 10 11.3465 10 11.9581C10 13.1564 9.57217 14.0987 8.71651 14.7852C7.86086 15.4592 6.77532 15.8337 5.45991 15.9086V17.5H4.4063V15.9086C3.07811 15.7963 2.00535 15.3219 1.188 14.4857C0.38343 13.6494 -0.0124717 12.6134 0.00029932 11.3778H1.80101C1.81378 12.3139 2.0692 13.0441 2.56727 13.5683C3.06534 14.0925 3.67835 14.3983 4.4063 14.4857V9.41189L3.98485 9.29956C2.87378 9 1.99258 8.53193 1.34126 7.89537C0.689934 7.24633 0.364273 6.42254 0.364273 5.42401C0.364273 4.40051 0.760175 3.57672 1.55198 2.95264C2.34378 2.32856 3.29522 1.96659 4.4063 1.86674V0.5H5.45991ZM4.38714 7.65198L4.4063 7.6707V3.27092C3.78052 3.30837 3.25052 3.51431 2.81631 3.88876C2.38209 4.25073 2.16499 4.75624 2.16499 5.40528C2.16499 6.4787 2.9057 7.22761 4.38714 7.65198ZM5.45991 9.69273V14.5044C6.23894 14.4545 6.89026 14.236 7.41387 13.8491C7.93748 13.4497 8.19929 12.9068 8.19929 12.2203C8.19929 11.4838 7.98218 10.9409 7.54797 10.5914C7.11375 10.2419 6.41773 9.94236 5.45991 9.69273Z" fill="white"/>
</svg>
