<svg width="17" height="17" viewBox="0 0 17 17" fill="none" xmlns="http://www.w3.org/2000/svg">
<path d="M8.95991 2V3.04515C10.2753 3.12151 11.3098 3.45081 12.0633 4.03304C12.8168 4.60573 13.1871 5.35976 13.1743 6.29515H11.3736C11.3609 5.60793 11.1246 5.09251 10.6648 4.7489C10.2179 4.40528 9.64954 4.20007 8.95991 4.13326V7.68392L9.24725 7.74119C9.87303 7.86527 10.3966 7.99412 10.8181 8.12775C11.2523 8.26138 11.6929 8.44273 12.1399 8.67181C12.5869 8.89134 12.9253 9.17768 13.1552 9.53084C13.3851 9.88399 13.5 10.2944 13.5 10.7621C13.5 11.6784 13.0722 12.399 12.2165 12.924C11.3609 13.4394 10.2753 13.7258 8.95991 13.783V15H7.9063V13.783C6.57811 13.6971 5.50535 13.3344 4.688 12.6949C3.88343 12.0554 3.48753 11.2632 3.5003 10.3183H5.30101C5.31378 11.0341 5.5692 11.5925 6.06727 11.9934C6.56534 12.3943 7.17835 12.6281 7.9063 12.6949V8.81498L7.48485 8.72907C6.37378 8.5 5.49258 8.14207 4.84126 7.65528C4.18993 7.15896 3.86427 6.529 3.86427 5.76542C3.86427 4.98274 4.26017 4.35279 5.05198 3.87555C5.84378 3.39831 6.79522 3.12151 7.9063 3.04515V2H8.95991ZM7.88714 7.46916L7.9063 7.48348V4.11894C7.28052 4.14757 6.75052 4.30506 6.31631 4.59141C5.88209 4.86821 5.66499 5.25477 5.66499 5.7511C5.66499 6.57195 6.4057 7.14464 7.88714 7.46916ZM8.95991 9.02973V12.7092C9.73894 12.6711 10.3903 12.504 10.9139 12.2081C11.4375 11.9027 11.6993 11.4875 11.6993 10.9626C11.6993 10.3994 11.4822 9.98421 11.048 9.71696C10.6138 9.4497 9.91773 9.22063 8.95991 9.02973Z" fill="white"/>
</svg>
