<svg width="1204" height="107" viewBox="0 0 1204 107" fill="none" xmlns="http://www.w3.org/2000/svg">
<path d="M699.152 1.38943C670.822 1.38943 647.767 24.6252 647.767 53.1744C647.767 81.7235 670.822 104.959 699.152 104.959C727.482 104.959 750.537 81.7235 750.537 53.1744C750.537 24.6252 727.482 1.38943 699.152 1.38943ZM699.152 100.525C675.177 100.525 658.441 81.0594 658.441 53.1744C658.441 25.2894 675.187 5.82408 699.152 5.82408C723.116 5.82408 739.863 25.2894 739.863 53.1744C739.863 81.0594 723.116 100.525 699.152 100.525ZM1001.32 1.38943C972.986 1.38943 949.932 24.6252 949.932 53.1744C949.932 81.7235 972.986 104.959 1001.32 104.959C1029.65 104.959 1052.7 81.7235 1052.7 53.1744C1052.7 24.6252 1029.65 1.38943 1001.32 1.38943ZM1001.32 100.525C977.342 100.525 960.605 81.0594 960.605 53.1744C960.605 25.2894 977.352 5.82408 1001.32 5.82408C1025.28 5.82408 1042.03 25.2894 1042.03 53.1744C1042.03 81.0594 1025.28 100.525 1001.32 100.525ZM1107.5 3.76002V2.38061H1136.3C1136.32 3.21849 1136.33 3.76002 1136.3 3.76002C1136.02 3.7498 1135.92 3.73956 1135.13 3.73956C1129.78 3.73956 1128.7 6.26345 1128.39 7.9903C1128.3 8.33771 1128.28 8.99163 1128.28 9.42078C1128.28 10.6674 1128.67 12.2512 1129.4 14.2948L1157.76 91.6555L1159.12 95.3237L1187.51 17.7791C1188.3 15.6027 1188.76 13.6306 1188.76 11.914C1188.76 7.70416 1186.19 5.12926 1180.86 5.12926V3.8111H1202V5.12926C1194.16 5.12926 1192.45 9.41058 1189.74 16.6552L1157.36 104.949H1151.97L1119.12 15.2451C1116.3 7.48959 1115.26 3.56587 1107.5 3.74979V3.76002ZM416.412 103.58C409.94 103.58 409.255 101.383 406.158 93.2086L372.889 2.27839C372.685 1.70618 372.133 1.32812 371.53 1.32812H369.945C369.342 1.32812 368.79 1.70618 368.585 2.27839L368.401 2.77907H368.391L335.644 92.1255C332.945 99.5642 330.9 103.58 323.386 103.58V104.959H344.529V103.58C339.192 103.58 336.687 101.015 336.687 96.8667C336.687 95.15 337.086 93.178 337.873 91.0015L346.696 66.7746H385.833L396.108 94.8844C396.762 96.7236 397.171 98.1848 397.099 99.3599C396.926 101.986 394.85 103.57 389.748 103.57H388.317V104.99C388.317 104.99 388.317 104.97 388.317 104.949H417.884C417.884 104.949 417.884 104.97 417.884 104.99V104.949H417.915V103.57H416.392L416.412 103.58ZM347.381 65.0579L366.285 13.3752L385.189 65.0579H347.371H347.381ZM251.062 92.6466L234.07 71.1785C227.548 62.6873 219.021 57.4149 212.897 55.3815H220.698C238.283 55.3815 252.187 46.8188 252.187 29.5708C252.187 12.3227 239.673 2.39078 220.698 2.39078H198.277H178.913V3.77025C187.02 3.77025 188.329 6.72323 188.329 13.5795V95.1603C188.329 101.669 187.225 103.59 180.354 103.59H178.903V104.97H207.703V103.59H206.241C199.473 103.59 198.267 101.628 198.267 95.1603V55.3917H200.107C208.276 55.3917 213.551 59.3461 222.241 70.4735L249.713 104.98H266.337V103.6C260.08 103.6 257.309 100.77 251.052 92.6671L251.062 92.6466ZM198.267 53.6649V4.0257H217.763C230.083 4.0257 242.209 10.2076 242.209 29.5605C242.209 50.3031 229.296 53.6546 217.763 53.6546H198.267V53.6649ZM880.492 92.6466L863.5 71.1785C856.977 62.6873 848.45 57.4149 842.326 55.3815H850.127C867.712 55.3815 881.616 46.8188 881.616 29.5708C881.616 12.3227 869.102 2.39078 850.127 2.39078H827.706H808.342V3.77025C816.45 3.77025 817.758 6.72323 817.758 13.5795V95.1603C817.758 101.669 816.654 103.59 809.784 103.59H808.332V104.97H837.133V103.59H835.67C828.902 103.59 827.696 101.628 827.696 95.1603V55.3917H829.536C837.705 55.3917 842.981 59.3461 851.671 70.4735L879.142 104.98H895.766V103.6C889.509 103.6 886.738 100.77 880.481 92.6671L880.492 92.6466ZM827.696 53.6649V4.0257H847.193C859.512 4.0257 871.638 10.2076 871.638 29.5605C871.638 50.3031 858.725 53.6546 847.193 53.6546H827.696V53.6649ZM121.107 103.58H122.58V104.959H93.7792V103.58H95.2207C102.193 103.58 103.195 101.7 103.195 95.15V15.9093C103.195 15.9093 64.6209 104.929 64.6106 104.959H52.0558L13.4302 15.9297V95.15C13.4302 101.7 14.4321 103.58 21.4048 103.58H22.8566V104.959H2V103.58H3.47217C9.05437 103.58 11.4366 98.5628 11.4366 90.2147V13.5795C11.4366 12.6292 11.3854 11.7505 11.2627 10.9331C11.048 9.21646 10.5573 7.7859 9.74961 6.67213C9.55536 6.36559 9.32028 6.07949 9.05446 5.84447C7.68447 4.48548 5.66006 3.78048 2.82806 3.78048C2.44978 3.78048 2 3.76002 2 3.76002L2.02047 2.38061H20.0553L20.4336 6.64151V6.67213L62.5249 103.662H63.5678L66.9622 96.0083L104.647 9.03249L105.169 7.87785L105.567 6.67213L105.945 2.38061H122.559L122.58 3.76002C122.58 3.76002 122.13 3.78048 121.752 3.78048C115.423 3.78048 113.143 7.28522 113.143 13.5795V90.2147C113.143 98.5628 115.525 103.58 121.107 103.58ZM590.718 103.58H592.19V104.959H563.39V103.58H564.831C571.804 103.58 572.806 101.7 572.806 95.15V15.9093C572.806 15.9093 534.231 104.929 534.221 104.959H521.666L483.041 15.9297V95.15C483.041 101.7 484.043 103.58 491.015 103.58H492.467V104.959H471.611V103.58H473.083C478.665 103.58 481.047 98.5628 481.047 90.2147V13.5795C481.047 12.6292 480.996 11.7505 480.873 10.9331C480.659 9.21646 480.168 7.7859 479.36 6.67213C479.166 6.36559 478.931 6.07949 478.665 5.84447C477.295 4.48548 475.271 3.78048 472.439 3.78048C472.06 3.78048 471.611 3.76002 471.611 3.76002L471.631 2.38061H489.666L490.044 6.64151V6.67213L532.136 103.662H533.178L536.573 96.0083L574.258 9.03249L574.779 7.87785L575.178 6.67213L575.556 2.38061H592.17L592.19 3.76002C592.19 3.76002 591.74 3.78048 591.362 3.78048C585.034 3.78048 582.754 7.28522 582.754 13.5795V90.2147C582.754 98.5628 585.136 103.58 590.718 103.58Z" fill="white"/>
<path d="M417.884 104.949H388.317C388.317 104.97 388.317 104.99 388.317 104.99V103.57H389.748C394.85 103.57 396.926 101.986 397.099 99.3599C397.171 98.1848 396.762 96.7236 396.108 94.8844L385.833 66.7746H346.696L337.873 91.0015C337.086 93.178 336.687 95.15 336.687 96.8667C336.687 101.015 339.192 103.58 344.529 103.58V104.959H323.386V103.58C330.9 103.58 332.945 99.5642 335.644 92.1255L368.391 2.77907H368.401L368.585 2.27839C368.79 1.70618 369.342 1.32812 369.945 1.32812H371.53C372.133 1.32812 372.685 1.70618 372.889 2.27839L406.158 93.2086C409.255 101.383 409.94 103.58 416.412 103.58L416.392 103.57H417.915V104.949H417.884ZM417.884 104.949C417.884 104.949 417.884 104.97 417.884 104.99V104.949ZM699.152 1.38943C670.822 1.38943 647.767 24.6252 647.767 53.1744C647.767 81.7235 670.822 104.959 699.152 104.959C727.482 104.959 750.537 81.7235 750.537 53.1744C750.537 24.6252 727.482 1.38943 699.152 1.38943ZM699.152 100.525C675.177 100.525 658.441 81.0594 658.441 53.1744C658.441 25.2894 675.187 5.82408 699.152 5.82408C723.116 5.82408 739.863 25.2894 739.863 53.1744C739.863 81.0594 723.116 100.525 699.152 100.525ZM1001.32 1.38943C972.986 1.38943 949.932 24.6252 949.932 53.1744C949.932 81.7235 972.986 104.959 1001.32 104.959C1029.65 104.959 1052.7 81.7235 1052.7 53.1744C1052.7 24.6252 1029.65 1.38943 1001.32 1.38943ZM1001.32 100.525C977.342 100.525 960.605 81.0594 960.605 53.1744C960.605 25.2894 977.352 5.82408 1001.32 5.82408C1025.28 5.82408 1042.03 25.2894 1042.03 53.1744C1042.03 81.0594 1025.28 100.525 1001.32 100.525ZM1107.5 3.76002V2.38061H1136.3C1136.32 3.21849 1136.33 3.76002 1136.3 3.76002C1136.02 3.7498 1135.92 3.73956 1135.13 3.73956C1129.78 3.73956 1128.7 6.26345 1128.39 7.9903C1128.3 8.33771 1128.28 8.99163 1128.28 9.42078C1128.28 10.6674 1128.67 12.2512 1129.4 14.2948L1157.76 91.6555L1159.12 95.3237L1187.51 17.7791C1188.3 15.6027 1188.76 13.6306 1188.76 11.914C1188.76 7.70416 1186.19 5.12926 1180.86 5.12926V3.8111H1202V5.12926C1194.16 5.12926 1192.45 9.41058 1189.74 16.6552L1157.36 104.949H1151.97L1119.12 15.2451C1116.3 7.48959 1115.26 3.56587 1107.5 3.74979V3.76002ZM347.381 65.0579L366.285 13.3752L385.189 65.0579H347.371H347.381ZM251.062 92.6466L234.07 71.1785C227.548 62.6873 219.021 57.4149 212.897 55.3815H220.698C238.283 55.3815 252.187 46.8188 252.187 29.5708C252.187 12.3227 239.673 2.39078 220.698 2.39078H198.277H178.913V3.77025C187.02 3.77025 188.329 6.72323 188.329 13.5795V95.1603C188.329 101.669 187.225 103.59 180.354 103.59H178.903V104.97H207.703V103.59H206.241C199.473 103.59 198.267 101.628 198.267 95.1603V55.3917H200.107C208.276 55.3917 213.551 59.3461 222.241 70.4735L249.713 104.98H266.337V103.6C260.08 103.6 257.309 100.77 251.052 92.6671L251.062 92.6466ZM198.267 53.6649V4.0257H217.763C230.083 4.0257 242.209 10.2076 242.209 29.5605C242.209 50.3031 229.296 53.6546 217.763 53.6546H198.267V53.6649ZM880.492 92.6466L863.5 71.1785C856.977 62.6873 848.45 57.4149 842.326 55.3815H850.127C867.712 55.3815 881.616 46.8188 881.616 29.5708C881.616 12.3227 869.102 2.39078 850.127 2.39078H827.706H808.342V3.77025C816.45 3.77025 817.758 6.72323 817.758 13.5795V95.1603C817.758 101.669 816.654 103.59 809.784 103.59H808.332V104.97H837.133V103.59H835.67C828.902 103.59 827.696 101.628 827.696 95.1603V55.3917H829.536C837.705 55.3917 842.981 59.3461 851.671 70.4735L879.142 104.98H895.766V103.6C889.509 103.6 886.738 100.77 880.481 92.6671L880.492 92.6466ZM827.696 53.6649V4.0257H847.193C859.512 4.0257 871.638 10.2076 871.638 29.5605C871.638 50.3031 858.725 53.6546 847.193 53.6546H827.696V53.6649ZM121.107 103.58H122.58V104.959H93.7792V103.58H95.2207C102.193 103.58 103.195 101.7 103.195 95.15V15.9093C103.195 15.9093 64.6209 104.929 64.6106 104.959H52.0558L13.4302 15.9297V95.15C13.4302 101.7 14.4321 103.58 21.4048 103.58H22.8566V104.959H2V103.58H3.47217C9.05437 103.58 11.4366 98.5628 11.4366 90.2147V13.5795C11.4366 12.6292 11.3854 11.7505 11.2627 10.9331C11.048 9.21646 10.5573 7.7859 9.74961 6.67213C9.55536 6.36559 9.32028 6.07949 9.05446 5.84447C7.68447 4.48548 5.66006 3.78048 2.82806 3.78048C2.44978 3.78048 2 3.76002 2 3.76002L2.02047 2.38061H20.0553L20.4336 6.64151V6.67213L62.5249 103.662H63.5678L66.9622 96.0083L104.647 9.03249L105.169 7.87785L105.567 6.67213L105.945 2.38061H122.559L122.58 3.76002C122.58 3.76002 122.13 3.78048 121.752 3.78048C115.423 3.78048 113.143 7.28522 113.143 13.5795V90.2147C113.143 98.5628 115.525 103.58 121.107 103.58ZM590.718 103.58H592.19V104.959H563.39V103.58H564.831C571.804 103.58 572.806 101.7 572.806 95.15V15.9093C572.806 15.9093 534.231 104.929 534.221 104.959H521.666L483.041 15.9297V95.15C483.041 101.7 484.043 103.58 491.015 103.58H492.467V104.959H471.611V103.58H473.083C478.665 103.58 481.047 98.5628 481.047 90.2147V13.5795C481.047 12.6292 480.996 11.7505 480.873 10.9331C480.659 9.21646 480.168 7.7859 479.36 6.67213C479.166 6.36559 478.931 6.07949 478.665 5.84447C477.295 4.48548 475.271 3.78048 472.439 3.78048C472.06 3.78048 471.611 3.76002 471.611 3.76002L471.631 2.38061H489.666L490.044 6.64151V6.67213L532.136 103.662H533.178L536.573 96.0083L574.258 9.03249L574.779 7.87785L575.178 6.67213L575.556 2.38061H592.17L592.19 3.76002C592.19 3.76002 591.74 3.78048 591.362 3.78048C585.034 3.78048 582.754 7.28522 582.754 13.5795V90.2147C582.754 98.5628 585.136 103.58 590.718 103.58Z" stroke="white" stroke-width="2.13" stroke-miterlimit="10"/>
</svg>
