<svg width="1262" height="107" viewBox="0 0 1262 107" fill="none" xmlns="http://www.w3.org/2000/svg">
<path d="M129.001 101.56C125.681 101.56 122.991 101.25 120.991 100.64C118.671 99.87 117.081 98.41 116.261 96.3C115.431 94.17 114.841 90.74 114.491 86.11L107.231 4.95001C106.951 2.52001 106.531 1.39001 105.901 1.39001C105.311 1.39001 104.751 1.98 104.191 3.19L64.0706 90.54L23.2806 3.31C22.5306 1.91 21.9506 1.25 21.4406 1.25C20.8206 1.25 20.4306 1.97999 20.2406 3.48999L12.3206 89.14C11.8006 93.68 11.2206 96.8 10.6106 98.41C10.0106 99.98 8.85064 100.95 7.16064 101.29C5.95064 101.46 4.66059 101.55 3.35059 101.55C2.38059 101.55 1.89062 101.82 1.89062 102.35C1.89062 102.98 2.58062 103.28 4.01062 103.28C5.24062 103.28 7.22062 103.21 9.89062 103.08C12.6006 102.95 14.0507 102.88 14.3007 102.88C14.4707 102.88 15.9606 102.94 18.9806 103.08C21.9106 103.21 24.2907 103.28 26.0507 103.28C27.2807 103.28 27.9106 102.97 27.9106 102.35C27.9106 101.82 27.4206 101.55 26.4506 101.55C24.3606 101.55 22.7206 101.42 21.6006 101.16C19.1906 100.64 18.0206 98.83 18.0206 95.62C18.0206 93.76 18.1106 91.5 18.2806 88.9L23.5206 20.29C24.3206 22.05 26.1706 26.15 28.9006 32.26C32.0606 39.34 35.3206 46.62 38.6006 53.9C41.8706 61.17 43.7406 65.3 44.0106 65.83C44.1006 66.1 45.0106 68.05 46.7906 71.79C48.5706 75.54 50.7306 80.09 53.1906 85.32C55.6706 90.59 57.8706 95.14 59.7206 98.85C61.5106 102.43 62.1406 102.89 62.4906 102.89H62.5507C62.7907 102.75 63.4307 102.03 66.1807 97.13L101.581 20.03L107.211 96.16C107.471 98.64 107.271 100.11 106.621 100.51C105.741 101.01 105.621 101.25 105.621 101.43C105.621 102.06 106.541 102.4 108.521 102.49C113.251 103.02 120.051 103.28 128.731 103.28C129.961 103.28 130.591 102.97 130.591 102.35C130.591 101.91 130.071 101.65 129.001 101.55V101.56Z" fill="white" stroke="white" stroke-width="2.13" stroke-miterlimit="10"/>
<path d="M291.593 101.56C290.273 101.56 288.903 101.47 287.513 101.3C282.033 100.69 276.513 97.4203 271.103 91.5803C265.853 86.0703 256.783 74.7003 244.143 57.7803C254.703 48.5803 260.063 38.4902 260.063 27.8002C260.063 23.7502 259.103 19.9503 257.203 16.5103C255.313 13.0803 252.963 10.3502 250.233 8.41022C245.303 4.98022 237.773 3.24023 227.853 3.24023C226.443 3.24023 223.613 3.31025 219.473 3.44025C215.243 3.57025 212.983 3.64026 212.553 3.64026C212.203 3.64026 210.463 3.58025 207.213 3.44025C204.023 3.31025 201.553 3.24023 199.883 3.24023C199.423 3.24023 198.023 3.24022 198.023 4.04022C198.023 4.41022 198.233 4.84027 199.223 4.84027C201.143 4.84027 202.683 4.97022 203.813 5.23022C205.613 5.57022 206.843 6.28027 207.483 7.34027C208.123 8.41027 208.543 10.3703 208.713 13.1403C208.803 15.9903 208.843 25.5303 208.843 41.5103V64.8702C208.843 80.8802 208.663 90.8602 208.313 94.5502C207.883 98.6802 206.543 100.95 204.343 101.29C202.783 101.46 201.763 101.55 201.323 101.55C200.443 101.55 199.993 101.82 199.993 102.35C199.993 103.28 201.493 103.28 201.983 103.28C203.033 103.28 204.353 103.24 206.013 103.15C207.613 103.06 209.083 103 210.363 102.95C211.703 102.9 212.323 102.88 212.403 102.88C212.473 102.88 213.153 102.91 214.833 103.01C216.343 103.1 218.233 103.16 220.443 103.21C222.663 103.25 224.663 103.28 226.383 103.28C226.873 103.28 228.373 103.28 228.373 102.35C228.373 101.82 227.883 101.55 226.913 101.55C225.083 101.55 223.353 101.42 221.783 101.15C219.993 100.89 218.753 100.25 218.123 99.2402C217.473 98.2102 217.063 96.5402 216.893 94.2902C216.543 90.6202 216.363 81.8802 216.363 68.3002V60.9102C216.363 60.2102 216.663 60.1302 216.883 60.1302L236.283 60.3903C236.763 60.3903 237.353 60.7303 238.023 61.3903C238.913 62.5503 241.193 65.6802 244.623 70.4302C248.113 75.2702 250.773 78.9303 252.543 81.3203C252.993 81.9403 253.853 83.1003 255.123 84.7603C256.393 86.4203 257.263 87.5402 257.703 88.0602C258.133 88.5702 258.823 89.4403 259.813 90.7003C260.783 91.9303 261.513 92.8003 262.003 93.2803C262.483 93.7703 263.103 94.4302 263.843 95.2502C264.583 96.0802 265.273 96.7702 265.903 97.3102C266.513 97.8402 267.143 98.3303 267.753 98.7603C269.783 100.43 271.933 101.62 274.133 102.28C276.333 102.94 279.543 103.28 283.673 103.28H290.533C292.223 103.28 293.053 102.98 293.053 102.35C293.053 101.82 292.563 101.55 291.593 101.55V101.56ZM252.123 32.5402C252.123 37.3302 251.243 41.6902 249.493 45.4802C247.743 49.2702 245.543 52.2103 242.933 54.2003C240.593 56.0203 237.333 56.9402 233.253 56.9402C225.213 56.9402 219.773 56.3202 217.063 55.1002C216.593 54.9502 216.373 54.6402 216.373 54.1802V9.31024C216.373 8.48024 216.733 7.92022 217.463 7.60022C219.293 6.99022 222.603 6.68024 227.313 6.68024C235.243 6.68024 241.423 9.06025 245.683 13.7603C249.953 18.4603 252.113 24.7802 252.113 32.5402H252.123Z" fill="white" stroke="white" stroke-width="2.13" stroke-miterlimit="10"/>
<path d="M427.778 101.561C426.298 101.561 424.928 101.431 423.708 101.161C421.378 100.821 419.458 99.7506 417.988 97.9806C416.508 96.2006 414.738 92.7706 412.728 87.7906C395.068 42.5006 384.368 14.9206 380.918 5.83063C379.368 1.89063 378.758 1.39062 378.408 1.39062C377.988 1.39062 377.318 1.93059 375.768 6.10059L346.068 88.5906C344.578 93.0406 343.148 96.2306 341.798 98.0506C340.458 99.8606 338.558 100.951 336.138 101.301C335.448 101.471 334.398 101.561 333.008 101.561C332.548 101.561 331.148 101.561 331.148 102.361C331.148 102.991 331.888 103.291 333.398 103.291C335.678 103.291 338.328 103.221 341.258 103.091C343.318 103.001 345.698 102.891 345.808 102.891C346.068 102.891 347.378 102.951 349.828 103.091C352.228 103.221 354.038 103.291 355.178 103.291C355.668 103.291 357.168 103.291 357.168 102.361C357.168 101.561 355.868 101.561 355.438 101.561H353.468C351.068 101.391 349.908 100.311 349.908 98.2706C349.908 96.0106 350.658 92.7806 352.148 88.6806L360.718 62.9606C360.958 62.4006 361.258 62.1206 361.648 62.1206H393.848C394.308 62.1206 394.558 62.3306 394.638 62.8206L408.098 98.0606C408.558 99.2306 408.638 100.101 408.338 100.641C408.148 100.991 407.798 101.201 407.288 101.301C406.598 101.401 406.238 101.671 406.238 102.101C406.238 102.411 406.538 102.781 408.878 102.901C415.188 103.161 421.358 103.301 427.228 103.301C428.658 103.301 429.348 103.001 429.348 102.371C429.348 101.841 428.808 101.571 427.758 101.571L427.778 101.561ZM392.828 57.9106C392.778 57.9706 392.688 58.0106 392.538 58.0106H362.978C362.878 58.0106 362.808 57.9906 362.768 57.9406C362.718 57.8806 362.658 57.7306 362.718 57.4106L376.578 16.6306C376.868 15.6406 377.078 15.6106 377.098 15.6106C377.118 15.6106 377.328 15.6406 377.628 16.6406L392.798 57.4106C392.878 57.6506 392.888 57.8306 392.828 57.9206V57.9106Z" fill="white" stroke="white" stroke-width="2.13" stroke-miterlimit="10"/>
<path d="M612.407 101.56C609.087 101.56 606.397 101.25 604.397 100.64C602.077 99.87 600.487 98.41 599.667 96.3C598.837 94.17 598.247 90.74 597.897 86.11L590.637 4.95001C590.357 2.52001 589.937 1.39001 589.307 1.39001C588.717 1.39001 588.157 1.98 587.597 3.19L547.477 90.54L506.687 3.31C505.937 1.91 505.357 1.25 504.847 1.25C504.227 1.25 503.837 1.97999 503.647 3.48999L495.727 89.14C495.207 93.68 494.627 96.8 494.017 98.41C493.417 99.98 492.257 100.95 490.567 101.29C489.357 101.46 488.067 101.55 486.757 101.55C485.787 101.55 485.297 101.82 485.297 102.35C485.297 102.98 485.987 103.28 487.417 103.28C488.647 103.28 490.627 103.21 493.297 103.08C496.007 102.95 497.457 102.88 497.707 102.88C497.877 102.88 499.367 102.94 502.387 103.08C505.317 103.21 507.697 103.28 509.457 103.28C510.687 103.28 511.317 102.97 511.317 102.35C511.317 101.82 510.827 101.55 509.857 101.55C507.767 101.55 506.127 101.42 505.007 101.16C502.597 100.64 501.427 98.83 501.427 95.62C501.427 93.76 501.517 91.5 501.687 88.9L506.927 20.29C507.727 22.05 509.577 26.15 512.307 32.26C515.467 39.34 518.727 46.62 522.007 53.9C525.277 61.17 527.147 65.3 527.417 65.83C527.507 66.1 528.417 68.05 530.197 71.79C531.977 75.54 534.137 80.09 536.597 85.32C539.077 90.59 541.277 95.14 543.127 98.85C544.917 102.43 545.547 102.89 545.897 102.89H545.957C546.197 102.75 546.837 102.03 549.587 97.13L584.987 20.03L590.617 96.16C590.877 98.64 590.677 100.11 590.027 100.51C589.147 101.01 589.027 101.25 589.027 101.43C589.027 102.06 589.947 102.4 591.927 102.49C596.657 103.02 603.457 103.28 612.137 103.28C613.367 103.28 613.997 102.97 613.997 102.35C613.997 101.91 613.477 101.65 612.407 101.55V101.56Z" fill="white" stroke="white" stroke-width="2.13" stroke-miterlimit="10"/>
<path d="M728.548 1.39062C720.298 1.39062 712.677 2.99063 705.917 6.15063C699.157 9.31063 693.658 13.4706 689.568 18.5306C685.488 23.5806 682.327 29.1906 680.177 35.2006C678.027 41.2106 676.938 47.3806 676.938 53.5306C676.938 59.6806 677.958 66.0606 679.978 71.9906C681.998 77.9106 685.028 83.4606 688.978 88.4606C692.938 93.4706 698.278 97.5506 704.868 100.581C711.458 103.611 719.028 105.151 727.368 105.151C742.648 105.151 755.267 99.8306 764.887 89.3306C774.497 78.8406 779.377 65.8706 779.377 50.7606C779.377 35.6506 774.587 24.1806 765.147 15.0906C755.707 6.00064 743.398 1.39062 728.558 1.39062H728.548ZM752.358 94.4506C748.778 96.8106 745.128 98.4906 741.508 99.4506C737.888 100.411 734.147 100.901 730.387 100.901C717.637 100.901 706.868 96.3206 698.358 87.2806C689.848 78.2406 685.528 65.8706 685.528 50.4906C685.528 36.7806 689.308 25.6906 696.778 17.5306C704.238 9.37064 714.618 5.2406 727.618 5.2406C733.108 5.2406 738.448 6.28063 743.468 8.33063C748.488 10.3806 753.108 13.3706 757.218 17.2106C761.318 21.0506 764.638 26.1806 767.078 32.4706C769.528 38.7606 770.768 45.9406 770.768 53.8006C770.768 60.6106 769.928 66.8306 768.268 72.3006C766.608 77.7606 764.418 82.2706 761.758 85.7206C759.098 89.1706 755.928 92.1106 752.358 94.4706V94.4506Z" fill="white" stroke="white" stroke-width="2.13" stroke-miterlimit="10"/>
<path d="M946.838 101.56C945.518 101.56 944.148 101.47 942.758 101.3C937.278 100.69 931.758 97.4203 926.348 91.5803C921.098 86.0703 912.028 74.7003 899.388 57.7803C909.948 48.5803 915.308 38.4902 915.308 27.8002C915.308 23.7502 914.348 19.9503 912.448 16.5103C910.558 13.0803 908.208 10.3502 905.478 8.41022C900.548 4.98022 893.018 3.24023 883.098 3.24023C881.688 3.24023 878.858 3.31025 874.708 3.44025C870.478 3.57025 868.218 3.64026 867.788 3.64026C867.438 3.64026 865.698 3.58025 862.448 3.44025C859.258 3.31025 856.788 3.24023 855.118 3.24023C854.658 3.24023 853.258 3.24022 853.258 4.04022C853.258 4.41022 853.468 4.84027 854.458 4.84027C856.378 4.84027 857.918 4.97022 859.048 5.23022C860.848 5.57022 862.078 6.28027 862.718 7.34027C863.358 8.42027 863.778 10.3703 863.948 13.1403C864.038 15.9703 864.078 25.5203 864.078 41.5103V64.8702C864.078 80.8802 863.898 90.8702 863.548 94.5502C863.118 98.6802 861.778 100.95 859.578 101.29C858.018 101.46 856.998 101.55 856.558 101.55C855.678 101.55 855.228 101.82 855.228 102.35C855.228 103.28 856.728 103.28 857.218 103.28C858.268 103.28 859.588 103.24 861.248 103.15C862.848 103.06 864.318 103 865.598 102.95C866.938 102.9 867.558 102.88 867.638 102.88C867.708 102.88 868.388 102.91 870.068 103.01C871.578 103.09 873.468 103.16 875.678 103.21C877.898 103.25 879.898 103.28 881.618 103.28C882.108 103.28 883.608 103.28 883.608 102.35C883.608 101.82 883.118 101.55 882.148 101.55C880.318 101.55 878.588 101.42 877.018 101.15C875.218 100.89 873.988 100.25 873.358 99.2402C872.708 98.2102 872.298 96.5402 872.128 94.2902C871.778 90.6202 871.598 81.8802 871.598 68.3002V60.9102C871.598 60.2102 871.898 60.1302 872.118 60.1302L891.518 60.3903C891.998 60.3903 892.588 60.7303 893.258 61.3903C894.158 62.5603 896.368 65.6002 899.858 70.4302C903.338 75.2602 906.008 78.9303 907.778 81.3203C908.228 81.9503 909.098 83.1103 910.358 84.7603C911.628 86.4203 912.488 87.5302 912.938 88.0602C913.378 88.5902 914.088 89.4803 915.048 90.7003C916.008 91.9303 916.748 92.8003 917.238 93.2803C917.718 93.7603 918.338 94.4302 919.078 95.2502C919.818 96.0802 920.508 96.7702 921.138 97.3102C921.758 97.8402 922.378 98.3303 922.988 98.7603C925.018 100.43 927.168 101.62 929.368 102.28C931.568 102.94 934.778 103.28 938.908 103.28H945.768C947.458 103.28 948.288 102.98 948.288 102.35C948.288 101.82 947.798 101.55 946.828 101.55L946.838 101.56ZM907.368 32.5402C907.368 37.3302 906.488 41.6902 904.738 45.4802C902.998 49.2702 900.788 52.2103 898.178 54.2003C895.838 56.0203 892.578 56.9402 888.498 56.9402C880.458 56.9402 875.018 56.3202 872.308 55.1002C871.838 54.9502 871.618 54.6402 871.618 54.1802V9.31024C871.618 8.48024 871.978 7.92022 872.708 7.60022C874.538 6.99022 877.848 6.68024 882.558 6.68024C890.488 6.68024 896.668 9.06025 900.928 13.7603C905.198 18.4603 907.358 24.7802 907.358 32.5402H907.368Z" fill="white" stroke="white" stroke-width="2.13" stroke-miterlimit="10"/>
<path d="M1049.11 1.39062C1040.86 1.39062 1033.24 2.99063 1026.48 6.15063C1019.72 9.31063 1014.22 13.4706 1010.13 18.5306C1006.05 23.5806 1002.89 29.1906 1000.74 35.2006C998.59 41.2106 997.5 47.3806 997.5 53.5306C997.5 59.6806 998.52 66.0606 1000.54 71.9906C1002.56 77.9106 1005.59 83.4606 1009.54 88.4606C1013.49 93.4706 1018.84 97.5506 1025.43 100.581C1032.02 103.611 1039.59 105.151 1047.92 105.151C1063.2 105.151 1075.82 99.8306 1085.44 89.3306C1095.05 78.8406 1099.93 65.8706 1099.93 50.7606C1099.93 35.6506 1095.14 24.1806 1085.7 15.0906C1076.26 6.00064 1063.95 1.39062 1049.11 1.39062ZM1072.92 94.4506C1069.34 96.8106 1065.69 98.4906 1062.07 99.4506C1058.45 100.411 1054.71 100.901 1050.95 100.901C1038.2 100.901 1027.43 96.3206 1018.92 87.2806C1010.41 78.2406 1006.09 65.8706 1006.09 50.4906C1006.09 36.7806 1009.87 25.6906 1017.34 17.5306C1024.8 9.37064 1035.18 5.2406 1048.18 5.2406C1053.67 5.2406 1059.01 6.28063 1064.03 8.33063C1069.05 10.3806 1073.67 13.3706 1077.78 17.2106C1081.88 21.0506 1085.2 26.1806 1087.64 32.4706C1090.09 38.7606 1091.33 45.9406 1091.33 53.8006C1091.33 60.6106 1090.49 66.8306 1088.83 72.3006C1087.17 77.7606 1084.98 82.2706 1082.32 85.7206C1079.66 89.1706 1076.49 92.1106 1072.92 94.4706V94.4506Z" fill="white" stroke="white" stroke-width="2.13" stroke-miterlimit="10"/>
<path d="M1258.16 3.24048C1256.66 3.24048 1254.64 3.31049 1252.15 3.44049C1249.61 3.57049 1248.3 3.6405 1248.13 3.6405C1247.96 3.6405 1246.49 3.58049 1243.52 3.44049C1240.64 3.31049 1238.28 3.24048 1236.52 3.24048C1235.09 3.24048 1234.4 3.50047 1234.4 4.04047C1234.4 4.58047 1234.85 4.84052 1235.73 4.84052C1237.2 4.84052 1238.44 4.97047 1239.4 5.23047C1241.37 5.66047 1242.32 6.61049 1242.32 8.13049C1242.32 9.51049 1241.88 11.4005 1241.01 13.7605C1239.52 18.5005 1235.06 30.3905 1227.75 49.1205C1220.51 67.6805 1214.72 82.1205 1210.53 92.0805L1182.15 18.1105C1179.97 12.3505 1178.86 8.81046 1178.86 7.60046C1178.86 6.39046 1179.56 5.65047 1180.99 5.23047C1182.3 4.97047 1183.53 4.84052 1184.66 4.84052C1185.54 4.84052 1185.99 4.57047 1185.99 4.04047C1185.99 3.51047 1185.15 3.24048 1183.34 3.24048C1182.3 3.24048 1180.44 3.28048 1177.66 3.37048C1175.05 3.45048 1173.41 3.50049 1173.05 3.50049C1172.69 3.50049 1170.92 3.45048 1168.11 3.37048C1165.1 3.28048 1162.74 3.24048 1160.91 3.24048C1159.08 3.24048 1158.26 3.49047 1158.26 4.04047C1158.26 4.59047 1158.75 4.84052 1159.72 4.84052C1160.93 4.84052 1162.12 4.97047 1163.26 5.23047C1165.76 5.66047 1167.58 6.5605 1168.65 7.8905C1169.74 9.2405 1171.08 12.0005 1172.65 16.1005L1204.98 98.7105C1207.14 104.461 1208.12 105.13 1208.7 105.13C1209.04 105.06 1209.67 104.47 1211.57 100.43C1212.09 99.3205 1212.49 98.4305 1212.76 97.7905C1217.31 87.4605 1223.4 72.9805 1230.84 54.7605C1235.66 43.1805 1240.46 31.2305 1245.09 19.2605C1247.88 12.1905 1250.22 7.91051 1252.04 6.52051C1253.59 5.40051 1255.79 4.83051 1258.56 4.83051C1259.62 4.83051 1260.15 4.56052 1260.15 4.03052C1260.15 3.50052 1259.5 3.23047 1258.16 3.23047V3.24048Z" fill="white" stroke="white" stroke-width="2.13" stroke-miterlimit="10"/>
</svg>
