<svg width="592" height="134" viewBox="0 0 592 134" fill="none" xmlns="http://www.w3.org/2000/svg">
<path d="M122.487 49.8301C125.157 46.1401 126.278 44.6001 127.928 42.6501L128.647 42.22C138.077 36.94 148.118 29.8601 156.918 22.2701C163.758 16.2501 168.777 10.64 169.697 7.97003C170.127 6.74003 170.087 5.76007 169.597 5.07007C169.127 4.41007 168.297 4.08008 167.127 4.08008C159.917 4.08008 145.887 16.1101 127.627 37.9601L124.168 42.1401L123.477 42.8701C117.647 45.8601 104.448 51.51 96.9175 54.41C102.488 48.01 106.217 42.17 107.987 37.05C109.717 32.05 109.497 27.8001 107.337 24.7601C105.167 21.7001 101.168 20.0901 95.7975 20.0901C87.4975 20.0901 75.6275 23.4801 63.9975 29.1801L63.7475 29.3701C59.8675 27.6001 55.6175 26.7801 50.3975 26.7801C39.5475 26.7801 28.7275 30.82 18.2275 38.79C18.4675 36.96 18.8875 35.23 19.6075 33.16C23.8075 21.06 36.2875 11.9401 48.6375 11.9401C53.8075 11.9401 58.0475 14.0301 60.2875 17.6801C60.3375 17.7601 60.4175 17.8201 60.5075 17.8401C60.5975 17.8601 60.6975 17.84 60.7775 17.79L61.9775 17.0101C62.1275 16.9101 62.1875 16.72 62.0975 16.55C60.0275 12.4 54.9874 9.82007 48.9574 9.82007C35.6074 9.82007 22.0475 19.89 17.4175 33.23C16.4975 35.88 16.0575 38.0401 15.9075 40.6401C10.0775 45.8101 5.48752 52.39 3.28752 58.73C-0.852484 70.68 3.21751 80.8701 13.9075 85.3701V85.54C12.7075 92.54 13.8075 98.1001 17.1575 102.07C20.6175 106.18 26.5075 108.35 34.1775 108.35C47.9775 108.35 67.8574 100.51 84.8274 88.3801C99.3574 78.0501 110.027 67.21 121.647 50.97L122.487 49.8101V49.8301ZM34.8775 106.1C27.5575 106.1 22.3075 104.29 19.2675 100.71C16.4675 97.4201 15.5274 92.61 16.4674 86.41C19.4174 87.47 24.3475 88.1501 29.2275 88.1501C50.3375 88.1501 75.7475 76.2001 93.9775 57.7001L94.1775 57.47L94.6075 57.3401C99.9275 55.5801 109.597 51.5101 118.687 47.2101L120.617 46.2401C120.677 46.2001 120.787 46.13 120.947 46.04L119.847 47.4401C101.167 70.9401 87.9574 83.8301 72.7174 93.4001C60.8174 100.76 44.9075 106.1 34.8875 106.1H34.8775ZM49.7575 28.8901C54.0875 28.8901 57.4075 29.4301 61.0075 30.7501C47.9475 37.6801 35.2975 47.8001 27.0375 57.9301C21.2275 54.2101 18.0675 48.2601 18.1075 41.1401C27.1375 33.5801 39.2475 28.8901 49.7475 28.8901H49.7575ZM70.2475 49.5701C69.6675 51.2501 68.8575 52.67 67.1475 55.41C67.0875 55.51 67.0775 55.6401 67.1275 55.7501C67.1775 55.8601 67.2775 55.9301 67.3975 55.9501L68.5874 56.11C68.7074 56.13 68.8275 56.08 68.9075 55.98C70.5475 53.95 71.4175 52.3801 72.2575 49.9601C74.8975 42.3501 72.6375 35.08 66.3675 30.85C76.8875 25.45 87.4675 22.36 95.4075 22.36C100.108 22.36 103.517 23.66 105.267 26.11C107.047 28.61 107.148 32.37 105.558 36.97C103.698 42.32 98.9175 49.5101 93.0575 55.7501L92.6175 55.8801C75.9575 61.4601 63.2375 63.9501 51.3575 63.9501C43.1675 63.9501 35.7475 62.4901 30.4075 59.8301C39.0775 49.2401 50.9275 39.4601 63.8075 32.2801L64.0075 32.1901C70.3175 35.8201 72.7075 42.4601 70.2475 49.5701ZM28.8975 61.6401C34.6875 64.5901 42.3975 66.2101 50.6675 66.2101C61.7675 66.2101 75.3575 63.6601 90.0475 58.8201C73.1075 75.1201 49.0775 86.0301 30.0275 86.0301C25.7875 86.0301 20.6675 85.2901 16.8575 84.1301C17.3975 82.1801 17.7575 81.1401 18.1175 80.1301C19.8875 75.0401 24.1075 67.8101 28.9175 61.6401H28.8975ZM25.6575 59.79C21.4375 65.29 18.2274 71.3101 15.8374 78.1901C15.2074 80.0101 14.7374 81.3701 14.4374 82.9001C4.86742 78.1601 1.64746 69.68 5.35746 58.97C7.24746 53.53 11.0775 47.7401 15.9275 43.0001C16.4375 50.1001 19.6075 55.5801 25.6475 59.7801L25.6575 59.79ZM149.107 17.91C155.977 11.22 163.447 6.19006 166.487 6.19006C166.877 6.19006 167.187 6.34004 167.377 6.60004C167.587 6.89004 167.617 7.31005 167.467 7.74005C166.587 10.2801 160.947 16.2101 153.107 22.8301C146.487 28.5801 137.537 34.95 130.747 38.79C137.377 30.02 143.227 23.36 149.087 17.92L149.107 17.91Z" fill="white" stroke="white" stroke-width="1.42" stroke-miterlimit="10"/>
<path d="M240.959 86.1195H240.699C240.619 86.1195 240.539 86.1495 240.479 86.1995C234.239 91.3195 223.959 96.8195 216.129 96.8195C213.449 96.8195 211.649 96.2395 210.929 95.1495C210.369 94.3095 210.419 93.1095 211.059 91.5695C211.899 89.5795 213.619 87.2395 216.189 84.5895C216.229 85.0295 216.379 85.4295 216.639 85.7595C217.189 86.4595 218.189 86.8195 219.599 86.8195C224.719 86.8195 230.729 82.9195 234.309 79.5895C237.789 76.4595 239.489 73.6095 238.859 71.9595C238.619 71.3195 237.909 70.5695 235.929 70.5695C229.039 70.5695 215.879 79.8195 210.399 87.0495C202.849 93.1795 195.599 96.6995 190.519 96.6995C189.129 96.6995 188.219 96.4395 187.899 95.9595C187.669 95.6095 187.699 95.0795 187.989 94.3895C189.259 91.3795 195.099 85.8895 199.789 81.4795C202.159 79.2495 204.209 77.3195 205.369 76.0095C207.159 73.9195 207.819 72.1795 207.259 70.9695C206.969 70.3295 206.189 69.5695 204.179 69.5695C197.019 69.6795 183.779 79.9495 173.239 88.6795L190.459 71.1995C190.559 71.0995 190.589 70.9495 190.529 70.8095C190.469 70.6795 190.349 70.5895 190.199 70.5895H186.809C186.719 70.5895 186.619 70.6295 186.559 70.6995L170.859 86.5895C167.599 88.6895 163.909 89.8395 160.459 89.8395C159.679 89.8395 158.929 89.7695 158.209 89.6195C161.969 85.9195 165.399 81.2595 166.839 77.8495C167.869 75.4095 167.959 73.4395 167.109 72.1595C166.439 71.1395 165.189 70.6095 163.499 70.6095C161.249 70.6095 158.459 71.7695 156.029 73.7195C151.439 75.6795 144.339 80.9195 140.329 86.3395C133.829 91.5795 123.869 96.8595 116.209 96.8595C113.939 96.8595 112.469 96.3895 111.849 95.4495C111.329 94.6695 111.389 93.4995 112.019 91.9995C115.959 82.6695 140.399 59.7295 148.019 52.7295C150.809 53.1095 153.649 53.6095 156.639 54.1395C172.629 56.9595 190.759 60.1595 209.029 45.3695C209.169 45.2595 209.199 45.0595 209.109 44.9095L208.959 44.6595C208.909 44.5695 208.819 44.5095 208.719 44.4895C208.619 44.4695 208.509 44.4895 208.429 44.5595C190.889 58.7995 173.249 55.7595 157.689 53.0895C154.729 52.5795 151.909 52.0995 149.119 51.7195C156.829 44.6895 164.579 38.0895 169.479 34.4095C169.599 34.3195 169.649 34.1595 169.599 34.0095C169.549 33.8695 169.419 33.7695 169.259 33.7695H165.739C165.669 33.7695 165.589 33.7895 165.529 33.8395C160.719 37.3495 152.889 43.8395 144.569 51.2195C137.259 50.6395 131.849 51.4495 127.049 53.8195C126.959 53.8595 126.889 53.9395 126.869 54.0395C126.839 54.1395 126.859 54.2395 126.909 54.3195L127.059 54.5695C127.149 54.7295 127.349 54.7895 127.519 54.6995C131.939 52.5495 136.879 51.7895 143.429 52.2495C134.179 60.6195 113.769 79.8295 109.399 90.1795C108.399 92.5495 108.329 94.4095 109.199 95.7195C110.189 97.2095 112.299 97.9395 115.649 97.9395C122.549 97.9395 130.739 94.6195 138.869 88.5495C138.519 89.1595 138.229 89.7495 138.009 90.3195C137.109 92.6295 137.129 94.5595 138.049 95.9095C138.899 97.1495 140.499 97.8095 142.679 97.8095C148.459 97.8095 154.229 93.2595 157.239 90.4495C158.299 90.6895 159.269 90.7995 160.359 90.7995C163.119 90.7995 165.919 90.1395 168.589 88.8795L160.229 97.3295C160.129 97.4295 160.099 97.5795 160.149 97.7195C160.209 97.8495 160.329 97.9395 160.479 97.9395H163.999C164.089 97.9395 164.179 97.8995 164.249 97.8395L165.129 96.9595C176.269 87.2895 196.029 71.0495 203.149 70.9195C203.689 70.9195 204.039 71.0295 204.129 71.2195C204.219 71.4195 204.239 72.1195 202.439 74.1595C200.889 75.9895 198.689 78.0295 196.359 80.1795C192.149 84.0695 187.379 88.4895 185.649 92.5995C184.969 94.1995 184.939 95.4795 185.549 96.3995C186.229 97.4195 187.649 97.9395 189.799 97.9395C196.179 97.9395 203.399 93.5895 208.809 89.4595C208.599 89.8395 208.419 90.2095 208.269 90.5595C207.479 92.4295 207.499 94.0195 208.329 95.2695C209.449 96.9595 212.099 97.9295 215.589 97.9295C223.299 97.9295 232.389 93.9595 241.209 86.7595C241.329 86.6695 241.369 86.5095 241.319 86.3695C241.269 86.2295 241.139 86.1295 240.989 86.1295L240.959 86.1195ZM237.699 72.4495C238.059 73.3895 236.699 75.8795 233.419 78.8295C229.819 82.1695 224.309 85.7395 219.629 85.7395C218.609 85.7395 217.929 85.5195 217.609 85.0795C217.319 84.6795 217.309 84.0595 217.579 83.2295C223.949 77.1995 232.749 71.9195 236.439 71.9195C237.139 71.9195 237.569 72.0995 237.699 72.4495ZM140.859 91.8295C142.569 87.2095 146.879 83.2295 150.609 80.4895C150.549 80.6195 150.499 80.7395 150.449 80.8595C149.689 82.6595 149.689 84.4495 150.449 86.0095C151.349 87.8595 153.319 89.3695 155.899 90.1995C151.379 94.3095 146.959 96.5695 143.399 96.5695C142.019 96.5695 141.099 96.2395 140.649 95.5895C140.119 94.8295 140.189 93.5595 140.859 91.8195V91.8295ZM151.629 85.4895C150.989 84.1495 150.979 82.6495 151.629 81.1295C151.899 80.4795 152.229 79.9295 152.609 79.2895L152.739 79.0795C154.619 77.8695 156.469 76.8495 157.699 76.3495C157.809 76.2995 157.899 76.1995 157.919 76.0795L158.339 73.5295C158.339 73.5295 158.339 73.4295 158.339 73.3895C160.069 72.2595 161.779 71.6595 163.339 71.6595C164.539 71.6595 165.399 72.0395 165.889 72.7795C166.589 73.8395 166.489 75.5795 165.609 77.6695C164.219 80.9495 160.809 85.5395 156.869 89.3895C154.379 88.6495 152.479 87.2295 151.639 85.4895H151.629Z" fill="white" stroke="white" stroke-width="1.42" stroke-miterlimit="10"/>
<path d="M590.709 70.7397C590.639 70.6397 590.529 70.5797 590.409 70.5797C585.099 70.5797 576.999 77.6497 566.479 88.2497C560.539 93.3197 554.709 96.4397 550.909 96.5797C549.919 96.5797 549.279 96.3697 549.009 95.9597C548.729 95.5397 548.789 94.8397 549.189 93.8897C551.269 88.9697 562.179 78.4397 567.429 73.3797C568.369 72.4697 569.149 71.7197 569.679 71.1897C569.779 71.0897 569.809 70.9397 569.759 70.7997C569.709 70.6697 569.579 70.5797 569.429 70.5797H566.169C566.079 70.5797 565.989 70.6097 565.929 70.6797L564.939 71.6097C561.939 74.4097 554.909 80.9797 550.229 86.4597C542.409 92.9697 534.899 96.7097 529.619 96.7097C528.229 96.7097 527.319 96.4497 526.999 95.9697C526.769 95.6197 526.799 95.0897 527.089 94.3997C528.359 91.3897 534.199 85.8997 538.889 81.4897C541.259 79.2597 543.309 77.3297 544.469 76.0197C546.259 73.9297 546.919 72.1897 546.359 70.9797C546.069 70.3397 545.289 69.5797 543.279 69.5797C536.109 69.6897 522.879 79.9597 512.339 88.6897L529.559 71.2097C529.659 71.1097 529.689 70.9597 529.629 70.8197C529.569 70.6797 529.449 70.5997 529.299 70.5997H525.909C525.819 70.5997 525.719 70.6397 525.659 70.7097L509.339 87.2097C501.959 93.1697 494.829 96.7197 490.269 96.7197C488.809 96.7197 487.839 96.3597 487.369 95.6497C486.839 94.8497 486.939 93.5397 487.649 91.8597C490.659 84.7197 504.249 71.4297 511.799 71.4297C511.939 71.4297 512.069 71.3397 512.129 71.2097L512.179 71.0797C512.229 70.9697 512.209 70.8497 512.149 70.7497C512.079 70.6497 511.969 70.5897 511.849 70.5897C508.519 70.5897 503.759 72.4697 498.689 75.7697C498.999 74.0997 498.799 72.7797 498.089 71.8497C497.329 70.8597 495.999 70.3397 494.239 70.3397C487.119 70.3397 476.039 78.5297 469.419 86.4597C466.859 88.2797 463.869 89.9597 459.379 89.9597C458.009 89.9597 456.869 89.7197 455.979 89.2397C458.689 86.8097 461.109 84.0197 463.189 80.9497C465.869 76.9697 466.769 73.8997 465.799 72.0797C465.239 71.0297 464.079 70.4497 462.529 70.4497C459.049 70.4497 454.249 73.6097 449.719 77.2497L455.309 71.1797C455.409 71.0797 455.429 70.9297 455.369 70.7997C455.309 70.6697 455.189 70.5897 455.049 70.5897H452.179C452.079 70.5897 451.989 70.6297 451.919 70.6997L437.099 86.7197C429.389 93.0697 422.039 96.7197 416.929 96.7197C415.559 96.7197 414.659 96.4497 414.329 95.9497C414.089 95.5897 414.119 95.0697 414.399 94.4097C415.669 91.3997 421.509 85.9097 426.199 81.4997C428.569 79.2697 430.619 77.3397 431.779 76.0297C433.569 73.9397 434.229 72.1997 433.669 70.9897C433.379 70.3497 432.599 69.5897 430.589 69.5897C424.279 69.6897 413.059 77.7797 401.969 86.8097C406.709 81.9597 411.429 77.0897 412.369 76.0297C414.169 73.9397 414.819 72.1997 414.259 70.9897C413.969 70.3497 413.189 69.5897 411.179 69.5897C404.009 69.6997 390.779 79.9697 380.239 88.6997L397.459 71.2197C397.559 71.1197 397.589 70.9697 397.529 70.8297C397.479 70.6997 397.349 70.6097 397.199 70.6097H394.329C394.239 70.6097 394.139 70.6497 394.079 70.7197L378.599 86.3797C375.309 88.5897 371.399 89.8597 367.849 89.8597C367.069 89.8597 366.319 89.7897 365.599 89.6397C369.359 85.9397 372.789 81.2797 374.229 77.8697C375.259 75.4297 375.349 73.4597 374.499 72.1797C373.829 71.1597 372.579 70.6297 370.889 70.6297C368.639 70.6297 365.849 71.7897 363.419 73.7397C358.739 75.7397 351.569 81.0497 347.579 86.5397C331.979 98.6897 313.119 105.94 297.109 105.94C289.129 105.94 283.889 104.01 281.509 100.19C278.899 95.9997 279.719 89.5297 283.949 80.9597C287.319 74.0997 292.749 66.3897 300.099 58.0297C303.359 61.9597 309.289 63.9497 317.729 63.9497C347.919 63.9497 390.199 39.3997 399.989 16.1997C402.009 11.4197 402.189 7.89968 400.539 5.41968C398.759 2.73968 394.949 1.42969 388.879 1.42969C381.469 1.42969 372.989 3.32971 363.659 7.07971C361.679 4.25971 357.959 2.82971 352.589 2.82971C339.649 2.82971 322.389 11.1497 310.619 23.0697C300.309 33.5297 295.249 45.4697 297.679 53.5597C290.119 61.8997 284.389 70.0197 280.639 77.7097C275.799 87.5497 274.949 95.1097 278.119 100.2C280.989 104.81 287.049 107.15 296.109 107.15C311.929 107.15 330.529 100.26 346.229 88.6397C345.889 89.2397 345.609 89.8097 345.389 90.3597C344.489 92.6697 344.509 94.5997 345.429 95.9497C346.279 97.1897 347.879 97.8497 350.059 97.8497C355.839 97.8497 361.609 93.2997 364.619 90.4897C365.679 90.7297 366.649 90.8397 367.739 90.8397C370.589 90.8397 373.479 90.1297 376.229 88.7797L367.729 97.3697C367.629 97.4697 367.599 97.6197 367.649 97.7597C367.709 97.8897 367.829 97.9797 367.979 97.9797H370.979C371.069 97.9797 371.159 97.9397 371.229 97.8797L372.109 96.9997C383.249 87.3297 403.009 71.0897 410.129 70.9597C410.669 70.9597 411.019 71.0697 411.109 71.2597C411.199 71.4597 411.219 72.1597 409.419 74.1997C408.229 75.6297 403.359 80.7897 386.899 97.2297L386.759 97.3697C386.659 97.4697 386.629 97.6197 386.679 97.7597C386.729 97.8897 386.859 97.9797 387.009 97.9797H390.789C390.879 97.9797 390.969 97.9397 391.039 97.8797L394.369 94.5797C412.319 79.2197 424.479 71.0597 429.539 70.9597C430.079 70.9597 430.429 71.0697 430.519 71.2597C430.609 71.4597 430.629 72.1597 428.829 74.1997C427.279 76.0297 425.079 78.0697 422.749 80.2197C418.539 84.1097 413.779 88.5297 412.039 92.6397C411.359 94.2397 411.329 95.5197 411.939 96.4397C412.619 97.4597 414.039 97.9797 416.189 97.9797C421.859 97.9797 428.269 94.4397 433.439 90.7197L418.889 106.44C408.959 117.18 401.949 123.35 396.169 126.44C393.809 127.71 391.099 128.85 388.759 129.57C383.059 131.32 375.949 132.61 366.399 128.9C364.689 128.23 359.369 125.23 357.099 123.95C355.799 123.22 355.789 123.22 355.689 123.22C355.549 123.22 355.419 123.31 355.369 123.44L355.259 123.69C355.209 123.8 355.229 123.93 355.289 124.03C355.329 124.09 355.389 124.14 355.459 124.16C355.559 124.21 355.999 124.46 356.649 124.82C359.089 126.19 364.149 129.03 366.139 129.82C371.149 131.8 375.499 132.49 379.269 132.49C383.279 132.49 386.639 131.7 389.439 130.84C391.029 130.35 392.729 129.6 394.529 128.8C395.259 128.48 396.009 128.15 396.759 127.82C403.919 124.78 412.069 118.14 422.399 106.91L433.319 95.0697C434.749 97.7597 438.179 97.9797 439.239 97.9797C443.349 97.9797 449.389 94.9397 455.039 90.0397C456.079 90.6597 457.639 90.9697 459.659 90.9697C462.489 90.9697 465.079 90.2597 467.659 88.7597C466.569 90.2797 465.729 91.6897 465.219 92.8997C464.469 94.6797 464.389 96.0397 464.979 96.9297C465.499 97.7097 466.509 98.1097 467.989 98.1097C473.079 98.1097 479.789 93.6297 484.989 89.4097C484.819 89.7397 484.669 90.0597 484.539 90.3497C483.599 92.5697 483.589 94.4897 484.519 95.8797C485.429 97.2497 487.169 97.9797 489.539 97.9797C493.609 97.9797 499.029 95.7297 505.069 91.5597L499.319 97.3697C499.219 97.4697 499.189 97.6197 499.239 97.7597C499.299 97.8897 499.419 97.9797 499.569 97.9797H503.089C503.179 97.9797 503.269 97.9397 503.339 97.8797L504.219 96.9997C515.359 87.3297 535.119 71.0897 542.239 70.9597C542.779 70.9597 543.129 71.0697 543.219 71.2597C543.309 71.4597 543.329 72.1597 541.529 74.1997C539.979 76.0297 537.779 78.0697 535.449 80.2197C531.239 84.1097 526.469 88.5297 524.739 92.6397C524.059 94.2397 524.029 95.5197 524.639 96.4397C525.319 97.4597 526.739 97.9797 528.889 97.9797C535.169 97.9797 542.259 93.7797 547.739 89.6297C546.759 90.9697 546.079 92.0997 545.689 93.0297C544.939 94.7997 545.269 95.8897 545.669 96.4997C546.309 97.4697 547.629 97.9797 549.479 97.9797C552.799 97.9797 557.079 96.3197 561.569 93.3397C560.239 94.7097 558.919 96.0897 557.619 97.4497C555.909 99.2397 554.189 101.03 552.449 102.8L541.639 106.34C528.799 110.94 517.699 114.92 514.569 122.34C513.659 124.5 513.649 126.35 514.539 127.69C515.419 129.02 517.109 129.72 519.419 129.72C529.539 129.72 544.429 115.79 557.669 102.15C566.279 99.2497 576.499 95.1597 587.079 86.8297C587.199 86.7397 587.239 86.5797 587.199 86.4397C587.149 86.2997 587.019 86.1997 586.869 86.1997H586.609C586.529 86.1997 586.449 86.2297 586.389 86.2797C577.269 93.4597 567.639 97.5297 559.249 100.51C561.869 97.7797 564.439 95.0497 566.929 92.3997C577.489 81.1797 586.609 71.4897 590.379 71.4897C590.519 71.4897 590.649 71.3997 590.709 71.2697L590.759 71.1397C590.809 71.0297 590.789 70.9097 590.729 70.8097L590.709 70.7397ZM518.839 128.44C517.289 128.44 516.159 127.98 515.579 127.1C514.869 126.04 514.959 124.38 515.839 122.31C518.449 116.12 527.829 112.36 541.819 107.34L550.889 104.35C539.379 116.2 526.669 128.44 518.829 128.44H518.839ZM497.669 76.4497C493.139 79.5997 489.199 83.2597 486.619 86.7197C482.189 90.3997 474.119 96.5797 469.749 96.5797C469.099 96.5797 468.679 96.4397 468.489 96.1597C468.229 95.7697 468.339 94.9997 468.809 93.8797C471.769 86.8597 486.419 71.5397 494.549 71.5397C495.939 71.5397 496.919 71.9197 497.469 72.6597C498.079 73.4897 498.149 74.7997 497.659 76.4397L497.669 76.4497ZM442.819 84.6997C449.969 78.2497 457.899 71.6597 462.449 71.6597C463.199 71.6597 464.179 71.8397 464.639 72.7197C465.359 74.0897 464.559 76.6397 462.459 79.7497C459.969 79.7997 457.979 80.8697 455.849 83.3097C453.119 86.3797 453.339 88.1497 454.149 89.1297C448.579 94.0197 443.179 96.8197 439.289 96.8197C437.329 96.8197 434.829 96.1297 434.079 94.1997L442.819 84.6997ZM348.259 91.8297C349.969 87.2097 354.279 83.2297 358.009 80.4897C357.949 80.6197 357.899 80.7397 357.849 80.8597C357.089 82.6597 357.089 84.4497 357.849 86.0097C358.749 87.8597 360.719 89.3697 363.299 90.1997C358.779 94.3097 354.359 96.5697 350.799 96.5697C349.419 96.5697 348.499 96.2397 348.049 95.5897C347.519 94.8297 347.589 93.5597 348.259 91.8197V91.8297ZM359.029 85.4897C358.389 84.1497 358.379 82.6497 359.029 81.1297C359.299 80.4897 359.629 79.9397 360.009 79.2997L360.139 79.0797C362.049 77.8497 363.849 76.8597 365.099 76.3497C365.209 76.2997 365.299 76.1997 365.319 76.0797L365.739 73.5297C365.739 73.5297 365.739 73.4297 365.739 73.3897C367.469 72.2597 369.179 71.6597 370.739 71.6597C371.939 71.6597 372.799 72.0397 373.289 72.7797C373.989 73.8397 373.889 75.5797 373.009 77.6697C371.619 80.9497 368.209 85.5397 364.269 89.3897C361.779 88.6497 359.879 87.2297 359.039 85.4897H359.029ZM352.379 3.99969C357.109 3.99969 360.559 5.1897 362.399 7.4397C340.629 16.3097 316.329 33.4697 298.739 52.3797C296.889 44.7297 301.849 33.5997 311.549 23.7697C323.059 12.1297 339.849 3.98969 352.379 3.98969V3.99969ZM317.939 62.6797C309.829 62.6797 304.149 60.7497 301.049 56.9297C317.959 38.1797 342.439 19.8197 363.599 10.0097C365.339 17.6397 355.389 31.6797 337.849 40.1597C337.719 40.2197 337.639 40.3597 337.649 40.5097L337.699 41.0197C337.709 41.1397 337.779 41.2397 337.879 41.2997C337.979 41.3597 338.109 41.3597 338.209 41.2997C356.679 32.1997 366.739 17.5997 364.759 9.44971C374.539 5.12971 383.219 2.84967 389.859 2.84967C394.619 2.84967 397.779 3.97971 399.259 6.19971C400.729 8.41971 400.549 11.7597 398.709 16.1197C389.349 38.3097 347.079 62.6697 317.939 62.6697V62.6797Z" fill="white" stroke="white" stroke-width="1.42" stroke-miterlimit="10"/>
</svg>
