<svg width="604" height="136" viewBox="0 0 604 136" fill="none" xmlns="http://www.w3.org/2000/svg">
<path d="M129.54 43.0811L130.338 42.6009C139.999 37.1955 150.325 29.8896 159.179 22.2568C166.039 16.2179 171.213 10.4959 172.143 7.7983C172.91 5.57077 172.082 4.30369 169.853 4.30369C162.696 4.30369 148.219 16.6981 129.745 38.7895L126.187 43.0811L125.43 43.8781C119.245 47.0559 105.064 53.0947 97.55 55.9558L97.0183 56.1091L97.3454 55.6289C103.377 48.793 107.211 42.7541 109.031 37.5123C112.559 27.3453 107.876 20.673 96.9059 20.673C88.3179 20.673 76.2946 24.1676 64.6088 29.8897L64.1794 30.2064C60.0695 28.2956 55.7345 27.5088 50.4897 27.5088C39.356 27.5088 28.0178 31.8004 17.1396 40.2201C17.385 37.6758 17.9473 35.6117 18.663 33.5477C22.9672 21.1532 35.9719 11.6198 48.6903 11.6198C54.0987 11.6198 58.5767 13.8473 60.9077 17.6587L62.1347 16.8617C60.0695 12.7336 55.0699 10.1893 49.0277 10.1893C35.5118 10.1893 21.7506 20.5197 17.1192 33.8644C16.1786 36.562 15.7287 38.7895 15.5856 41.4871C9.63534 46.7289 4.93238 53.4013 2.67292 59.9204C-1.56996 72.1616 2.69338 82.3285 13.5511 86.7734V87.2536C11.0769 101.712 18.4892 110.132 33.9067 110.132C47.9031 110.132 68.3609 102.029 85.4858 89.7877C100.464 79.1405 111.321 68.0131 123.038 51.6438C126.381 47.0355 127.628 45.2882 129.51 43.0606L129.54 43.0811ZM151.184 17.8222C158.382 10.833 166.029 5.74446 169.209 5.74446C170.323 5.74446 170.947 6.6947 170.558 7.80846C169.618 10.506 163.872 16.5449 155.775 23.3808C148.27 29.8999 138.21 36.889 131.381 40.547C138.507 31.0136 144.856 23.7078 151.184 17.8222ZM64.4453 32.2806C71.2339 36.092 73.7386 43.0811 71.1418 50.5607C70.5386 52.308 69.7207 53.7385 67.9315 56.5995L69.1482 56.763C70.8147 54.699 71.6837 53.105 72.5119 50.7242C75.211 42.938 72.7163 35.4687 66.1935 31.3406L66.6229 31.0238C77.4602 25.4652 88.4201 22.2874 96.5276 22.2874C106.7 22.2874 110.606 28.0095 107.242 37.7064C105.371 43.1117 100.607 50.4177 94.3192 57.09L93.7876 57.2433C76.6933 62.9654 63.7295 65.5097 51.4916 65.5097C42.7503 65.5097 35.0313 63.9258 29.5002 61.0648C38.3949 50.1009 50.6636 39.9339 64.067 32.4646L64.435 32.3011L64.4453 32.2806ZM92.1722 59.1336L91.845 59.6139C74.2805 76.7801 49.5389 88.0609 29.6638 88.0609C25.2165 88.0609 19.7672 87.2638 15.7492 85.9968C16.3626 83.7693 16.7511 82.6555 17.1294 81.552C18.9492 76.3101 23.2842 68.8408 28.4063 62.3217C34.193 65.3462 42.1778 67.0935 50.7658 67.0935C62.6868 67.0935 77.041 64.2324 92.162 59.1439L92.1722 59.1336ZM49.8559 28.9394C54.6304 28.9394 58.219 29.5729 62.2778 31.1669L61.8995 31.3304C48.2916 38.483 35.0517 49.1302 26.6989 59.4606C20.5441 55.6493 17.0272 49.2936 17.1294 41.6608C26.566 33.7112 39.0288 28.9496 49.8354 28.9496L49.8559 28.9394ZM4.13498 59.9306C6.17974 54.0552 10.3919 47.8529 15.5958 42.9278C15.923 50.2337 18.9696 56.1193 25.38 60.5641L25.7992 60.7276C21.2189 66.603 17.8963 72.9586 15.5243 79.7944C14.8087 81.8585 14.3076 83.289 14.0213 85.0363C3.64416 80.1112 0.219251 71.2113 4.12475 59.9306H4.13498ZM73.5138 95.5302C61.1736 103.153 44.9893 108.558 34.653 108.558C19.8694 108.558 13.2852 101.406 15.5344 87.5806C18.3255 88.6943 23.4579 89.4913 28.8663 89.4913C50.4897 89.4913 76.1412 77.4137 94.7895 58.5001L95.0553 58.1834L95.587 58.0198C101.333 56.1091 111.413 51.8175 120.155 47.6894L122.077 46.7392C122.292 46.5859 122.874 46.2589 123.784 45.9421L121.791 48.4864C102.335 72.9586 88.962 85.8333 73.5138 95.52V95.5302ZM245.335 87.7952H245.069C244.988 87.7952 244.906 87.8259 244.844 87.8769C238.465 93.1086 227.955 98.7285 219.949 98.7285C217.209 98.7285 215.369 98.1358 214.633 97.022C214.061 96.1637 214.112 94.9376 214.766 93.364C215.625 91.3306 217.383 88.9396 220.011 86.2318C220.052 86.6814 220.205 87.0901 220.481 87.4273C221.043 88.1426 222.066 88.5105 223.507 88.5105C228.742 88.5105 234.886 84.5254 238.547 81.1228C242.104 77.9245 243.843 75.0124 243.198 73.3264C242.953 72.6725 242.227 71.9062 240.203 71.9062C233.128 71.9062 219.847 81.3476 214.132 88.7148C206.393 95.0091 199.021 98.6059 193.777 98.6059C192.355 98.6059 191.425 98.3401 191.098 97.8497C190.863 97.492 190.893 96.9505 191.19 96.2455C192.488 93.1699 198.459 87.5602 203.254 83.054C205.677 80.7754 207.773 78.8033 208.959 77.4648C210.789 75.3292 211.464 73.5512 210.891 72.3148C210.595 71.6609 209.797 70.8844 207.742 70.8844C200.412 70.9968 186.886 81.4907 176.11 90.411L193.715 72.5499C193.817 72.4477 193.848 72.2944 193.787 72.1514C193.725 72.0083 193.603 71.9266 193.449 71.9266H189.983C189.891 71.9266 189.789 71.9675 189.728 72.039L173.636 88.2959C170.364 90.3905 166.54 91.5963 163.033 91.5963C162.236 91.5963 161.469 91.5248 160.733 91.3715C164.577 87.5908 168.084 82.8292 169.556 79.3448C170.609 76.8517 170.701 74.8387 169.832 73.5308C169.147 72.4886 167.869 71.947 166.142 71.947C163.841 71.947 160.989 73.1323 158.504 75.1248C153.791 77.1378 146.532 82.4716 142.433 88.0302C135.951 93.2516 125.594 98.7693 117.783 98.7693C115.462 98.7693 113.959 98.2891 113.325 97.3286C112.794 96.5316 112.855 95.3361 113.499 93.8034C117.527 84.27 142.514 60.8298 150.305 53.6772C153.157 54.0655 156.051 54.5764 159.118 55.118C175.466 57.9994 194.001 61.2692 212.68 46.1567C212.823 46.0443 212.854 45.84 212.762 45.6867L212.609 45.4312C212.558 45.3393 212.466 45.278 212.363 45.2575C212.261 45.2371 212.149 45.2575 212.067 45.3291C194.134 59.8795 176.1 56.7732 160.191 54.045C157.165 53.5239 154.282 53.0334 151.429 52.6452C159.302 45.4619 167.235 38.718 172.245 34.9578C172.368 34.8658 172.419 34.7023 172.368 34.5491C172.317 34.3958 172.184 34.3039 172.02 34.3039H168.421C168.35 34.3039 168.268 34.3242 168.207 34.3753C163.299 37.9516 155.294 44.5933 146.778 52.1343C139.304 51.5416 133.773 52.3693 128.866 54.791C128.774 54.8318 128.702 54.9136 128.681 55.0157C128.651 55.1179 128.671 55.2201 128.722 55.3019L128.876 55.5573C128.968 55.7208 129.172 55.7821 129.346 55.6902C133.865 53.4933 138.916 52.7167 145.612 53.1867C136.155 61.7392 115.288 81.368 110.82 91.9437C109.798 94.3654 109.726 96.2659 110.616 97.6045C111.628 99.1269 113.785 99.8729 117.21 99.8729C124.306 99.8729 132.659 96.4805 140.96 90.2679C140.623 90.8708 140.306 91.4839 140.061 92.0765C139.14 94.4369 139.161 96.4089 140.102 97.7884C140.971 99.0554 142.606 99.7298 144.835 99.7298C150.744 99.7298 156.644 95.0806 159.721 92.2094C160.805 92.4546 161.796 92.567 162.911 92.567C165.763 92.567 168.616 91.8721 171.345 90.5744L162.768 99.2394C162.665 99.3416 162.635 99.4948 162.696 99.6378C162.757 99.7809 162.88 99.8627 163.033 99.8627H166.632C166.724 99.8627 166.816 99.8218 166.888 99.7605L167.788 98.8613C179.177 88.9805 199.379 72.3864 206.659 72.2535C207.211 72.2535 207.568 72.3659 207.66 72.5601C207.752 72.7644 207.773 73.4797 205.933 75.5642C204.348 77.4341 202.099 79.5186 199.716 81.7154C195.412 85.6903 190.536 90.2066 188.767 94.4062C188.072 96.0411 188.041 97.349 188.665 98.2891C189.36 99.3313 190.812 99.8627 193.01 99.8627C198.275 99.8627 205.084 96.8075 212.466 91.1876C212.251 91.5759 212.046 91.9641 211.893 92.3218C211.085 94.2325 211.106 95.8572 211.954 97.1345C213.1 98.8613 215.809 99.8524 219.377 99.8524C227.259 99.8524 236.553 95.7959 245.57 88.4389C245.693 88.347 245.734 88.1834 245.683 88.0404C245.632 87.8973 245.499 87.7952 245.345 87.7952H245.335ZM242.002 73.8169C242.37 74.7774 240.98 77.3217 237.626 80.336C233.946 83.7489 228.313 87.3967 223.528 87.3967C222.485 87.3967 221.79 87.1719 221.463 86.7223C221.166 86.3136 221.156 85.68 221.432 84.8319C227.944 78.6705 236.941 73.2753 240.714 73.2753C241.43 73.2753 241.869 73.4593 242.002 73.8169ZM142.995 93.6195C144.743 88.8987 149.15 84.8319 152.963 82.0322C152.912 82.165 152.851 82.2876 152.799 82.4103C152.022 84.2495 152.022 86.0786 152.799 87.6726C153.72 89.5629 155.734 91.1058 158.371 91.9539C153.75 96.1535 149.231 98.4628 145.592 98.4628C144.181 98.4628 143.24 98.1256 142.78 97.4614C142.238 96.6849 142.31 95.3872 142.995 93.6092V93.6195ZM154.006 87.1412C153.352 85.772 153.341 84.2393 154.006 82.6862C154.282 82.0322 154.619 81.46 155.008 80.8162L155.141 80.5915C157.093 79.3347 158.934 78.323 160.212 77.8019C160.324 77.7508 160.416 77.6487 160.437 77.5261L160.866 74.9205C160.866 74.9205 160.866 74.8183 160.866 74.7774C162.635 73.6228 164.383 73.0097 165.978 73.0097C167.205 73.0097 168.084 73.398 168.585 74.1541C169.301 75.2373 169.198 77.0151 168.299 79.1507C166.878 82.5124 163.391 87.1923 159.363 91.1263C156.817 90.3701 154.875 88.9191 154.016 87.1412H154.006ZM602.913 72.0696C602.842 71.9674 602.729 71.9062 602.606 71.9062C597.177 71.9062 588.896 79.1303 578.141 89.9614C572.068 95.1419 566.107 98.33 562.222 98.473C561.21 98.473 560.556 98.2585 560.28 97.8395C559.994 97.4104 560.055 96.6951 560.464 95.7244C562.59 90.6971 573.745 79.9375 579.112 74.7672C580.073 73.8374 580.871 73.071 581.412 72.5294C581.515 72.4273 581.545 72.274 581.494 72.1309C581.443 71.9879 581.31 71.9062 581.157 71.9062H577.824C577.732 71.9062 577.64 71.947 577.578 72.0083L576.566 72.9586C573.305 76.0036 566.322 82.5227 561.507 88.1528C553.522 94.7945 545.864 98.6059 540.456 98.6059C539.035 98.6059 538.104 98.3401 537.777 97.8497C537.542 97.492 537.573 96.9505 537.869 96.2455C539.168 93.1699 545.138 87.5602 549.933 83.054C552.356 80.7754 554.452 78.8033 555.638 77.4648C557.468 75.3292 558.143 73.5512 557.571 72.3148C557.274 71.6609 556.477 70.8844 554.422 70.8844C547.091 70.9968 533.565 81.4907 522.789 90.411L540.395 72.5499C540.497 72.4477 540.527 72.2944 540.466 72.1514C540.405 72.0083 540.282 71.9266 540.129 71.9266H536.663C536.571 71.9266 536.469 71.9675 536.407 72.039L519.712 88.9089C512.259 94.9273 504.877 98.6263 500.225 98.6263C498.732 98.6263 497.741 98.2584 497.26 97.5329C496.718 96.7155 496.82 95.3769 497.546 93.6603C500.624 86.3646 514.518 72.7849 522.237 72.7849C522.38 72.7849 522.513 72.6929 522.574 72.5601L522.625 72.4273C522.677 72.3149 522.656 72.1923 522.595 72.0901C522.523 71.9879 522.411 71.9266 522.288 71.9266C518.884 71.9266 514.017 73.8476 508.834 77.2196C509.15 75.5131 508.946 74.1643 508.22 73.214C507.443 72.2025 506.083 71.6711 504.284 71.6711C496.882 71.6711 485.482 80.3871 478.99 88.0915C476.485 89.8898 473.398 91.7291 468.654 91.7291C467.253 91.7291 466.088 91.4839 465.178 90.9934C467.949 88.5104 470.423 85.6596 472.549 82.5226C475.289 78.4559 476.209 75.3189 475.218 73.4593C474.645 72.3864 473.459 71.7937 471.875 71.7937C468.317 71.7937 463.409 75.0227 458.778 78.742L464.493 72.5294C464.595 72.4273 464.615 72.274 464.554 72.1412C464.493 72.0083 464.37 71.9266 464.227 71.9266H461.293C461.191 71.9266 461.099 71.9675 461.027 72.039L445.865 88.4082C438.095 94.8047 430.427 98.616 425.254 98.616C423.853 98.616 422.933 98.3402 422.596 97.8293C422.35 97.4716 422.381 96.9403 422.667 96.2557C423.966 93.18 429.936 87.5704 434.731 83.0642C437.154 80.7856 439.25 78.8136 440.436 77.475C442.266 75.3394 442.941 73.5615 442.368 72.3251C442.072 71.6711 441.275 70.8946 439.22 70.8946C432.768 70.9968 421.297 79.2631 409.959 88.49C414.805 83.5343 419.631 78.5581 420.592 77.475C422.422 75.3394 423.097 73.5615 422.524 72.3251C422.228 71.6711 421.43 70.8946 419.375 70.8946C412.045 71.007 398.519 81.5009 387.743 90.4212L405.348 72.5601C405.45 72.4579 405.481 72.3047 405.42 72.1616C405.358 72.0186 405.236 71.9368 405.082 71.9368H402.148C402.056 71.9368 401.954 71.9776 401.893 72.0492L386.035 88.0711C382.682 90.3088 378.705 91.6065 375.076 91.6065C374.278 91.6065 373.511 91.535 372.775 91.3817C376.619 87.601 380.126 82.8394 381.598 79.3551C382.651 76.8619 382.743 74.8489 381.874 73.541C381.189 72.4988 379.911 71.9572 378.183 71.9572C375.883 71.9572 373.031 73.1425 370.546 75.135C365.782 77.1684 358.4 82.5942 354.331 88.2243C338.382 100.629 319.141 108.027 302.752 108.027C294.594 108.027 289.236 106.055 286.803 102.151C284.135 97.8701 284.973 91.2591 289.298 82.5023C292.743 75.4927 298.295 67.6146 305.809 59.0723C309.142 63.088 315.205 65.1214 323.834 65.1214C354.699 65.1214 397.926 40.0361 407.935 16.3303C410 11.4461 410.184 7.84933 408.497 5.31526C406.677 2.57683 402.782 1.23828 396.576 1.23828C389 1.23828 380.33 3.17973 370.802 7.01149C368.777 4.13001 364.974 2.66883 359.484 2.66883C346.255 2.66883 328.608 11.1702 316.575 23.3501C306.034 34.0382 300.861 46.2385 303.345 54.5048C295.616 63.0267 289.758 71.3237 285.924 79.1814C280.975 89.2359 280.106 96.9607 283.347 102.162C286.282 106.872 292.477 109.263 301.74 109.263C317.975 109.263 336.92 102.223 352.992 90.3497C352.665 90.9423 352.368 91.5247 352.133 92.1072C351.213 94.4675 351.233 96.4396 352.174 97.8191C353.043 99.0861 354.679 99.7605 356.908 99.7605C362.817 99.7605 368.716 95.1113 371.793 92.24C372.877 92.4852 373.869 92.5977 374.983 92.5977C377.918 92.5977 380.862 91.8722 383.674 90.4928L374.983 99.2802C374.881 99.3824 374.85 99.5357 374.912 99.6787C374.973 99.8218 375.096 99.9035 375.249 99.9035H378.316C378.408 99.9035 378.5 99.8627 378.572 99.8014L379.472 98.9022C390.861 89.0213 411.063 72.4273 418.343 72.2945C418.895 72.2945 419.252 72.4068 419.344 72.601C419.436 72.8053 419.457 73.5206 417.627 75.5949C416.41 77.056 411.421 82.3387 394.582 99.1474L394.46 99.27C394.358 99.3722 394.327 99.5255 394.378 99.6685C394.439 99.8013 394.562 99.8933 394.715 99.8933H398.58C398.672 99.8933 398.764 99.8524 398.836 99.7911L402.24 96.4192C420.592 80.7243 433.034 72.3864 438.197 72.2842C438.749 72.2842 439.107 72.3966 439.199 72.5908C439.291 72.7951 439.312 73.5104 437.471 75.5949C435.887 77.4648 433.637 79.5492 431.255 81.7461C426.951 85.7209 422.074 90.2373 420.306 94.4369C419.61 96.0718 419.58 97.3797 420.203 98.3197C420.899 99.362 422.35 99.8933 424.548 99.8933C429.343 99.8933 435.478 97.2877 442.185 92.4648L427.299 108.528C417.136 119.502 409.979 125.806 404.07 128.964C401.647 130.261 398.887 131.426 396.494 132.162C390.667 133.95 383.398 135.268 373.634 131.477C371.886 130.793 366.446 127.727 364.126 126.419C362.797 125.673 362.797 125.684 362.684 125.673C362.541 125.673 362.408 125.765 362.357 125.898L362.245 126.154C362.193 126.266 362.214 126.399 362.275 126.501C362.316 126.562 362.377 126.613 362.449 126.634C362.551 126.685 363.001 126.94 363.666 127.308C366.15 128.708 371.333 131.61 373.368 132.417C378.49 134.44 382.938 135.156 386.792 135.156C390.892 135.156 394.327 134.348 397.19 133.47C398.815 132.969 400.553 132.193 402.404 131.385C403.15 131.058 403.907 130.721 404.684 130.394C412.004 127.298 420.326 120.503 430.897 109.028L442.062 96.9301C443.524 99.6787 447.031 99.9035 448.114 99.9035C452.316 99.9035 458.492 96.7972 464.268 91.7904C465.331 92.4239 466.926 92.7407 468.991 92.7407C472.365 92.7407 475.044 91.7086 477.211 90.4416C476.087 91.9845 475.218 93.4355 474.676 94.7128C473.909 96.5316 473.827 97.9212 474.43 98.8306C474.962 99.6276 475.995 100.036 477.508 100.036C482.712 100.036 489.582 95.4587 494.888 91.1467C494.715 91.4838 494.561 91.8108 494.428 92.1174C493.467 94.3858 493.457 96.3477 494.408 97.768C495.338 99.1678 497.117 99.9137 499.55 99.9137C503.712 99.9137 509.283 97.5841 515.418 93.364L509.549 99.2905C509.447 99.3926 509.416 99.5459 509.478 99.689C509.539 99.832 509.662 99.9137 509.815 99.9137H513.414C513.506 99.9137 513.598 99.8729 513.669 99.8116L514.569 98.9124C525.958 89.0316 546.161 72.4375 553.44 72.3046C553.992 72.3046 554.35 72.4171 554.442 72.6112C554.534 72.8156 554.555 73.5308 552.714 75.6153C551.13 77.4852 548.88 79.5696 546.498 81.7665C542.194 85.7413 537.317 90.2577 535.549 94.4574C534.853 96.0922 534.823 97.4001 535.446 98.3402C536.141 99.3824 537.593 99.9137 539.791 99.9137C545.016 99.9137 551.763 96.8994 559.074 91.3613C558.123 92.6589 557.387 93.8443 556.957 94.8456C556.19 96.6542 556.528 97.768 556.937 98.3913C557.591 99.3824 558.941 99.9035 560.832 99.9035C564.226 99.9035 568.602 98.2074 573.192 95.1624C571.833 96.5623 570.483 97.9723 569.154 99.362C567.406 101.191 565.647 103.02 563.868 104.829L552.827 108.446C539.699 113.146 528.351 117.213 525.151 124.795C524.22 127.002 524.21 128.892 525.12 130.261C526.02 131.62 527.748 132.336 530.109 132.336C540.456 132.336 555.679 118.102 569.215 104.164C578.018 101.201 588.467 97.0221 599.284 88.5105C599.406 88.4185 599.447 88.255 599.406 88.1119C599.355 87.9689 599.222 87.8667 599.069 87.8667H598.803C598.721 87.8667 598.64 87.8974 598.578 87.9485C589.254 95.285 579.409 99.4437 570.831 102.489C573.51 99.6992 576.127 96.9097 578.683 94.2019C589.479 82.7373 598.803 72.8257 602.658 72.8257C602.801 72.8257 602.934 72.7338 602.995 72.601L603.046 72.4681C603.097 72.3557 603.077 72.2331 603.015 72.1309L602.913 72.0696ZM529.435 131.028C527.85 131.028 526.695 130.558 526.102 129.658C525.376 128.575 525.468 126.879 526.368 124.764C529.036 118.439 538.626 114.597 552.939 109.468L562.212 106.412C550.444 118.521 537.45 131.028 529.435 131.028ZM507.791 77.9041C503.159 81.1228 499.131 84.8626 496.494 88.398C491.964 92.1582 483.714 98.473 479.246 98.473C478.581 98.473 478.152 98.3299 477.958 98.0438C477.692 97.6453 477.804 96.8586 478.285 95.7141C481.311 88.5411 496.289 72.8871 504.601 72.8871C506.022 72.8871 507.024 73.2753 507.586 74.0315C508.21 74.8796 508.281 76.2182 507.78 77.8939L507.791 77.9041ZM451.713 86.334C459.023 79.7434 467.131 73.0097 471.782 73.0097C472.549 73.0097 473.551 73.1936 474.021 74.0928C474.757 75.4926 473.94 78.0983 471.793 81.2761C469.247 81.3272 467.213 82.4205 465.035 84.9137C462.244 88.0506 462.468 89.8592 463.297 90.8606C457.602 95.8572 452.081 98.7182 448.104 98.7182C446.1 98.7182 443.544 98.0132 442.778 96.0411L451.713 86.334ZM355.037 93.6195C356.785 88.8987 361.191 84.8319 365.005 82.0322C364.944 82.165 364.893 82.2876 364.841 82.4103C364.064 84.2495 364.064 86.0786 364.841 87.6726C365.762 89.5629 367.776 91.1058 370.413 91.9539C365.792 96.1535 361.273 98.4628 357.634 98.4628C356.223 98.4628 355.282 98.1256 354.822 97.4614C354.28 96.6849 354.352 95.3872 355.037 93.6092V93.6195ZM366.048 87.1412C365.393 85.772 365.383 84.2393 366.048 82.6862C366.324 82.0322 366.661 81.46 367.05 80.8162L367.182 80.5915C369.135 79.3347 370.976 78.323 372.254 77.8019C372.366 77.7508 372.458 77.6487 372.479 77.5261L372.908 74.9205C372.908 74.9205 372.908 74.8183 372.908 74.7774C374.677 73.6228 376.425 73.0097 378.02 73.0097C379.247 73.0097 380.126 73.398 380.627 74.1541C381.343 75.2373 381.24 77.0151 380.341 79.1507C378.92 82.5124 375.423 87.1923 371.405 91.1263C368.859 90.3701 366.917 88.9191 366.058 87.1412H366.048ZM359.249 3.87455C364.085 3.87455 367.612 5.0905 369.493 7.38955C347.236 16.4529 322.392 33.9871 304.408 53.3093C302.517 45.4926 307.588 34.1199 317.505 24.0756C329.273 12.1818 346.438 3.86432 359.249 3.86432V3.87455ZM370.73 10.0054C372.509 17.8017 362.337 32.1478 344.404 40.8127C344.271 40.874 344.189 41.0171 344.199 41.1703L344.251 41.6915C344.261 41.8141 344.332 41.9162 344.435 41.9775C344.537 42.0388 344.67 42.0388 344.772 41.9775C363.655 32.6791 373.941 17.7608 371.916 9.43316C381.915 5.01897 390.79 2.68929 397.578 2.68929C402.445 2.68929 405.675 3.8439 407.188 6.1123C408.691 8.3807 408.507 11.7935 406.626 16.2486C397.057 38.9224 353.84 63.8134 324.048 63.8134C315.757 63.8134 309.95 61.8414 306.78 57.9381C324.069 38.7793 349.097 20.019 370.73 9.99513V10.0054Z" fill="white" stroke="white" stroke-width="1.42" stroke-miterlimit="10"/>
</svg>
