<svg width="312" height="27" viewBox="0 0 312 27" fill="none" xmlns="http://www.w3.org/2000/svg">
<path d="M181.158 0.0158866C173.82 0.0158866 167.849 6.03715 167.849 13.4353C167.849 20.8335 173.82 26.8547 181.158 26.8547C188.495 26.8547 194.466 20.8335 194.466 13.4353C194.466 6.03715 188.495 0.0158866 181.158 0.0158866ZM181.158 25.7056C174.948 25.7056 170.614 20.6614 170.614 13.4353C170.614 6.20927 174.951 1.16507 181.158 1.16507C187.364 1.16507 191.701 6.20927 191.701 13.4353C191.701 20.6614 187.364 25.7056 181.158 25.7056ZM259.415 0.0158866C252.078 0.0158866 246.107 6.03715 246.107 13.4353C246.107 20.8335 252.078 26.8547 259.415 26.8547C266.753 26.8547 272.724 20.8335 272.724 13.4353C272.724 6.03715 266.753 0.0158866 259.415 0.0158866ZM259.415 25.7056C253.206 25.7056 248.872 20.6614 248.872 13.4353C248.872 6.20927 253.209 1.16507 259.415 1.16507C265.622 1.16507 269.959 6.20927 269.959 13.4353C269.959 20.6614 265.622 25.7056 259.415 25.7056ZM286.916 0.630196V0.272739H294.375C294.381 0.489865 294.383 0.630196 294.375 0.630196C294.301 0.627548 294.277 0.624895 294.071 0.624895C292.686 0.624895 292.405 1.27893 292.326 1.72642C292.302 1.81645 292.297 1.9859 292.297 2.09711C292.297 2.42015 292.4 2.83058 292.588 3.36015L299.933 23.4072L300.285 24.3578L307.639 4.26307C307.843 3.69908 307.962 3.18804 307.962 2.7432C307.962 1.65227 307.297 0.985018 305.915 0.985018V0.643432H311.391V0.985018C309.36 0.985018 308.918 2.09447 308.216 3.97181L299.83 26.8521H298.435L289.924 3.60641C289.196 1.59667 288.926 0.579883 286.916 0.627545V0.630196ZM107.931 26.4973C106.254 26.4973 106.077 25.928 105.275 23.8097L96.6585 0.24625C96.6056 0.0979695 96.4626 0 96.3064 0H95.896C95.7397 0 95.5967 0.0979695 95.5438 0.24625L95.4961 0.375994H95.4935L87.0123 23.529C86.3133 25.4567 85.7837 26.4973 83.8375 26.4973V26.8547H89.3133V26.4973C87.9312 26.4973 87.2824 25.8327 87.2824 24.7576C87.2824 24.3128 87.3857 23.8018 87.5896 23.2378L89.8747 16.9596H100.011L102.672 24.2439C102.841 24.7206 102.947 25.0992 102.929 25.4037C102.884 26.0842 102.346 26.4946 101.025 26.4946H100.654V26.8627C100.654 26.8627 100.654 26.8574 100.654 26.8521H108.312C108.312 26.8521 108.312 26.8574 108.312 26.8627V26.8521H108.32V26.4946H107.925L107.931 26.4973ZM90.0521 16.5148L94.948 3.12184L99.8439 16.5148H90.0494H90.0521ZM65.1065 23.6641L60.7057 18.1009C59.0163 15.9005 56.808 14.5342 55.2219 14.0073H57.2423C61.7966 14.0073 65.3977 11.7883 65.3977 7.31873C65.3977 2.84912 62.1567 0.275373 57.2423 0.275373H51.4355H46.4204V0.632846C48.5202 0.632846 48.8591 1.39808 48.8591 3.1748V24.3154C48.8591 26.0021 48.5731 26.4999 46.7937 26.4999H46.4178V26.8574H53.8768V26.4999H53.4982C51.7453 26.4999 51.4328 25.9916 51.4328 24.3154V14.0099H51.9095C54.0251 14.0099 55.3914 15.0346 57.6421 17.9182L64.757 26.8601H69.0624V26.5026C67.4419 26.5026 66.7243 25.7691 65.1038 23.6694L65.1065 23.6641ZM51.4328 13.5624V0.699043H56.4823C59.673 0.699043 62.8134 2.301 62.8134 7.31608C62.8134 12.6913 59.4691 13.5598 56.4823 13.5598H51.4328V13.5624ZM228.123 23.6641L223.722 18.1009C222.033 15.9005 219.824 14.5342 218.238 14.0073H220.259C224.813 14.0073 228.414 11.7883 228.414 7.31873C228.414 2.84912 225.173 0.275373 220.259 0.275373H214.452H209.437V0.632846C211.537 0.632846 211.876 1.39808 211.876 3.1748V24.3154C211.876 26.0021 211.59 26.4999 209.81 26.4999H209.434V26.8574H216.893V26.4999H216.515C214.762 26.4999 214.449 25.9916 214.449 24.3154V14.0099H214.926C217.042 14.0099 218.408 15.0346 220.659 17.9182L227.773 26.8601H232.079V26.5026C230.458 26.5026 229.741 25.7691 228.12 23.6694L228.123 23.6641ZM214.449 13.5624V0.699043H219.499C222.689 0.699043 225.83 2.301 225.83 7.31608C225.83 12.6913 222.486 13.5598 219.499 13.5598H214.449V13.5624ZM31.4493 26.4973H31.8306V26.8547H24.3715V26.4973H24.7449C26.5507 26.4973 26.8102 26.0101 26.8102 24.3128V3.77852C26.8102 3.77852 16.8198 26.8468 16.8172 26.8547H13.5656L3.56187 3.78381V24.3128C3.56187 26.0101 3.82137 26.4973 5.62722 26.4973H6.00323V26.8547H0.601562V26.4973H0.982841C2.42858 26.4973 3.04555 25.1972 3.04555 23.0339V3.1748C3.04555 2.92855 3.0323 2.70084 3.00052 2.48901C2.94492 2.04417 2.81782 1.67345 2.60864 1.38483C2.55833 1.3054 2.49745 1.23126 2.4286 1.17036C2.07379 0.818189 1.54949 0.635497 0.816024 0.635497C0.718052 0.635497 0.601562 0.630196 0.601562 0.630196L0.606863 0.272739H5.27772L5.37569 1.3769V1.38483L16.277 26.5185H16.5471L17.4262 24.5352L27.1862 1.99649L27.3213 1.69728L27.4245 1.38483L27.5225 0.272739H31.8253L31.8306 0.630196C31.8306 0.630196 31.7141 0.635497 31.6161 0.635497C29.9771 0.635497 29.3866 1.54371 29.3866 3.1748V23.0339C29.3866 25.1972 30.0036 26.4973 31.4493 26.4973ZM153.074 26.4973H153.455V26.8547H145.996V26.4973H146.37C148.176 26.4973 148.435 26.0101 148.435 24.3128V3.77852C148.435 3.77852 138.445 26.8468 138.442 26.8547H135.19L125.187 3.78381V24.3128C125.187 26.0101 125.446 26.4973 127.252 26.4973H127.628V26.8547H122.226V26.4973H122.608C124.053 26.4973 124.67 25.1972 124.67 23.0339V3.1748C124.67 2.92855 124.657 2.70084 124.625 2.48901C124.57 2.04417 124.443 1.67345 124.234 1.38483C124.183 1.3054 124.122 1.23126 124.053 1.17036C123.699 0.818189 123.174 0.635497 122.441 0.635497C122.343 0.635497 122.226 0.630196 122.226 0.630196L122.232 0.272739H126.903L127.001 1.3769V1.38483L137.902 26.5185H138.172L139.051 24.5352L148.811 1.99649L148.946 1.69728L149.049 1.38483L149.147 0.272739H153.45L153.455 0.630196C153.455 0.630196 153.339 0.635497 153.241 0.635497C151.602 0.635497 151.011 1.54371 151.011 3.1748V23.0339C151.011 25.1972 151.628 26.4973 153.074 26.4973Z" fill="white"/>
</svg>
